<svg xmlns="http://www.w3.org/2000/svg" viewBox="0 0 142.57 29.18"><defs><style>.cls-1{fill:#11a1ab;}.cls-2,.cls-3,.cls-4{fill:#f37721;}.cls-2,.cls-4{stroke:#f37721;stroke-miterlimit:10;}.cls-2{stroke-width:0.25px;}.cls-4{stroke-width:0.75px;}</style></defs><title>Asset 1</title><g id="Layer_2" data-name="Layer 2"><g id="Layer_1-2" data-name="Layer 1"><path class="cls-1" d="M44.07,11.14v2.56h-.28a4.81,4.81,0,0,0-4.09,2.2A8.58,8.58,0,0,0,38.19,21l0,7.52H35.84l.06-17.08h2.32l0,4.2a6.06,6.06,0,0,1,3.23-3.92,5.18,5.18,0,0,1,2.48-.54Z"/><path class="cls-1" d="M49,5.22V8.57H46.5V5.21Zm-2.44,6.21H48.9l-.06,17.08H46.52Z"/><path class="cls-1" d="M55.18,28.55H52.86l.09-23.92h2.32Z"/><path class="cls-1" d="M61.52,28.58H59.2l.09-23.92h2.32Z"/><path class="cls-1" d="M68,5.31V8.65H65.52V5.29ZM65.6,11.51h2.32L67.86,28.6H65.54Z"/><path class="cls-1" d="M84,25.94a6.08,6.08,0,0,1-5.55,3A6.72,6.72,0,0,1,73,26.34a9.64,9.64,0,0,1-2-6.26A9.63,9.63,0,0,1,73,13.83a6.87,6.87,0,0,1,5.61-2.54A6,6,0,0,1,84,14.36V11.59h2.32l-.06,17.08H83.95Zm-5.23.66a4.7,4.7,0,0,0,4-1.9,7.29,7.29,0,0,0,1.41-4.57,7.3,7.3,0,0,0-1.38-4.58,4.71,4.71,0,0,0-4-1.93,4.93,4.93,0,0,0-4,1.9,7.07,7.07,0,0,0-1.47,4.57,7.08,7.08,0,0,0,1.44,4.58A4.93,4.93,0,0,0,78.73,26.6Z"/><path class="cls-1" d="M92,28.71,92,13.88H88.86V11.62H92l0-6.12h2.32l0,6.12,3.56,0v2.25l-3.56,0-.05,14.83Z"/><path class="cls-1" d="M111.54,28.8V26.13a8.11,8.11,0,0,1-2,2.07,4.64,4.64,0,0,1-2.76.84,6.72,6.72,0,0,1-2.66-.49,5.39,5.39,0,0,1-1.94-1.44,7.81,7.81,0,0,1-1.9-5.51l0-9.94h2.32l0,9.87a5.56,5.56,0,0,0,1.19,3.76,3.93,3.93,0,0,0,3.12,1.41,4.39,4.39,0,0,0,3.32-1.42,5.31,5.31,0,0,0,1.37-3.75l0-9.84h2.32l-.06,17.08Z"/><path class="cls-1" d="M126.11,11.51v2.56h-.28a4.8,4.8,0,0,0-4.09,2.2,8.58,8.58,0,0,0-1.5,5l0,7.52h-2.32l.06-17.08h2.32l0,4.2A6.06,6.06,0,0,1,123.48,12a5.18,5.18,0,0,1,2.48-.54Z"/><path class="cls-1" d="M135.06,26.85a4.63,4.63,0,0,0,4.5-2.85h2.54a8.22,8.22,0,0,1-2.57,3.75A6.86,6.86,0,0,1,135,29.18a7.15,7.15,0,0,1-5.68-2.59,9.28,9.28,0,0,1-2.11-6.26,9.45,9.45,0,0,1,2.06-6.24,7.47,7.47,0,0,1,11.26,0,9.47,9.47,0,0,1,2,6.26v1l-13-.06a6.47,6.47,0,0,0,1.69,3.9A5,5,0,0,0,135.06,26.85Zm-.14-13a4.85,4.85,0,0,0-3.59,1.45A6.3,6.3,0,0,0,129.64,19l10.52,0a6.32,6.32,0,0,0-1.66-3.66A4.86,4.86,0,0,0,134.92,13.87Z"/><path class="cls-1" d="M32.37,19.91a5.7,5.7,0,0,0-3.44-3.59q2.74-1.43,2.76-5.37a6.29,6.29,0,0,0-1.4-4.23,6.13,6.13,0,0,0-5-2.12l-7.06,0,2.33,2.6,5,0a3.61,3.61,0,0,1,3,1.28,3.46,3.46,0,0,1,.67,1.25,5.57,5.57,0,0,1,.21,1.63A4.33,4.33,0,0,1,29,13a3.7,3.7,0,0,1-3.79,2.26l-4.1,0-1.08,2.46,5.69,0a4.65,4.65,0,0,1,3.54,1.32,4.11,4.11,0,0,1,1.1,3,3.71,3.71,0,0,1-1.15,2.9,4.7,4.7,0,0,1-3.27,1l-4.83,0v0H16.61l-.55,2.5,9.67,0a8.33,8.33,0,0,0,3-.49,5.61,5.61,0,0,0,3.93-5.76A7.41,7.41,0,0,0,32.37,19.91Z"/><path class="cls-2" d="M12.71,23.92l2.32,0c.32,0,.62,0,.63.42s-.25.47-.59.48l-4.81.09c-.34,0-.6-.06-.61-.46s.3-.44.62-.44Z"/><path class="cls-2" d="M12.66,26.59l-1.82,0c-.31,0-.56-.07-.58-.43s.24-.5.56-.51l3.69-.07c.31,0,.61.05.61.46s-.27.48-.59.48Z"/><path class="cls-2" d="M14.36,28.22l-3.24.09a.4.4,0,0,1-.29-.56.49.49,0,0,1,.51-.33L14,27.38a.48.48,0,0,1,.49.28A.41.41,0,0,1,14.36,28.22Z"/><path class="cls-3" d="M7.48,12.28a.38.38,0,0,0-.42-.35.42.42,0,0,0-.46.37,3.92,3.92,0,0,0,0,.55,6,6,0,0,0,.46,1.75.45.45,0,0,0,.61.3.42.42,0,0,0,.25-.59A6.78,6.78,0,0,1,7.48,12.28Z"/><path class="cls-4" d="M19,8.18A7.81,7.81,0,0,0,11.08,4.7a7.9,7.9,0,0,0-5,12.43A26.69,26.69,0,0,0,8.58,20a3.25,3.25,0,0,1,1,2.32c0,.52.26.67.74.64.77,0,1.55,0,2.32-.05s1.55,0,2.33,0c.52,0,.75-.22.72-.73a3.09,3.09,0,0,1,.86-2.26A24,24,0,0,0,19,16.81,7.65,7.65,0,0,0,19,8.18Zm-1,8.55c-.65.9-1.37,1.74-2.09,2.58a3.62,3.62,0,0,0-1,2.26c0,.32-.16.39-.46.39-.59,0-1.18,0-1.77,0h-.5a4,4,0,0,1-1.37,0c-.46-.17-.25-.8-.45-1.19a5.2,5.2,0,0,0-.83-1.23c-.83-.89-1.67-1.77-2.42-2.74a7,7,0,1,1,12.29-5.35A7.1,7.1,0,0,1,18,16.72Z"/><path class="cls-3" d="M12.8,6.83c0-.41-.32-.43-.64-.42H12A5.79,5.79,0,0,0,7.08,9.91c-.14.3-.18.59.17.75s.53-.07.67-.37a5.5,5.5,0,0,1,.45-.82,4.91,4.91,0,0,1,3.84-2.17C12.55,7.29,12.82,7.23,12.8,6.83Z"/><path class="cls-3" d="M14.93,11.35a7.49,7.49,0,0,0-.69.34.92.92,0,0,1-1.33-.11.54.54,0,0,0-.9,0,.94.94,0,0,1-1.37.16,3.47,3.47,0,0,0-.5-.23c-.26-.1-.52-.22-.76,0s-.08.5.06.75A12.78,12.78,0,0,1,11,16.67a26.65,26.65,0,0,1,.26,3.69c0,.33.14.56.47.56a.44.44,0,0,0,.45-.52,32.63,32.63,0,0,0-.29-4,14,14,0,0,0-1.15-3.54,1.4,1.4,0,0,0,1.51-.31c.08-.07.17-.16.28-.05a1.44,1.44,0,0,0,1.59.3,12.48,12.48,0,0,0-1.1,4.5c0,1,0,2.06-.06,3.1a.46.46,0,0,0,.46.52c.33,0,.48-.23.47-.56,0-.17,0-.33,0-.5a18,18,0,0,1,.36-4.56,13.22,13.22,0,0,1,1.26-3.22.47.47,0,0,0,0-.61A.47.47,0,0,0,14.93,11.35Z"/><rect class="cls-3" x="12.16" width="1.27" height="2.66"/><rect class="cls-3" x="5.91" y="1.57" width="1.27" height="2.66" transform="translate(-0.57 3.66) rotate(-30)"/><rect class="cls-3" x="2" y="5.46" width="1.27" height="2.66" transform="translate(-4.56 5.68) rotate(-60)"/><rect class="cls-3" x="0.7" y="11.25" width="1.27" height="2.66" transform="translate(-11.23 14.04) rotate(-90.58)"/><rect class="cls-3" x="2.24" y="17.01" width="1.27" height="2.66" transform="translate(17.32 6.68) rotate(60)"/></g></g></svg>