<svg id="Layer_1" data-name="Layer 1" xmlns="http://www.w3.org/2000/svg" viewBox="0 0 281.73 246.37"><defs><style>.cls-1{fill:#11a1ab;}.cls-2,.cls-3,.cls-4{fill:#f37721;}.cls-2,.cls-4{stroke:#f37721;stroke-miterlimit:10;}.cls-2{stroke-width:0.25px;}.cls-4{stroke-width:0.75px;}</style></defs><title>B Logo</title><path class="cls-1" d="M229.52,131.37a32.71,32.71,0,0,0-19.7-20.6q15.74-8.2,15.82-30.78a36.14,36.14,0,0,0-8-24.28,35.22,35.22,0,0,0-28.74-12.14l-40.48-.11,13.36,14.92,28.48-.1a20.7,20.7,0,0,1,17.1,7.33,19.77,19.77,0,0,1,3.86,7.16,32,32,0,0,1,1.21,9.33,25,25,0,0,1-2,9.83,21.2,21.2,0,0,1-21.76,12.94l-23.5-.11L159,118.85l32.65.12a26.68,26.68,0,0,1,20.28,7.55,23.52,23.52,0,0,1,6.3,17,21.34,21.34,0,0,1-6.59,16.65A27,27,0,0,1,192.85,166l-27.69-.13v.22h-26l-3.17,14.35,55.45.26a47.8,47.8,0,0,0,17.49-2.82,32.16,32.16,0,0,0,22.54-33A42.7,42.7,0,0,0,229.52,131.37Z"/><path class="cls-2" d="M116.74,154.4c4.44-.08,8.88-.15,13.32-.27,1.82,0,3.56,0,3.63,2.42s-1.46,2.73-3.38,2.76q-13.8.23-27.61.54c-1.92,0-3.46-.37-3.47-2.64s1.73-2.52,3.55-2.54C107.43,154.6,112.08,154.49,116.74,154.4Z"/><path class="cls-2" d="M116.48,169.7c-3.48.07-7,.12-10.44.21-1.76,0-3.19-.41-3.35-2.46-.18-2.31,1.4-2.88,3.24-2.92q10.59-.27,21.18-.42c1.8,0,3.5.29,3.52,2.63s-1.53,2.73-3.4,2.75Z"/><path class="cls-2" d="M126.2,179.07l-18.57.54a2.32,2.32,0,0,1-1.79-2.75,1.9,1.9,0,0,1,.15-.46,2.78,2.78,0,0,1,3-1.9q7.73-.17,15.45-.3a2.76,2.76,0,0,1,2.82,1.62,2.37,2.37,0,0,1-.95,3.22Z"/><path class="cls-3" d="M86.76,87.64a2.17,2.17,0,0,0-2.29-2h-.1a2.39,2.39,0,0,0-2.65,2.1v.05a21.79,21.79,0,0,0,0,3.13,34.15,34.15,0,0,0,2.66,10,2.58,2.58,0,0,0,3.15,1.85,1.91,1.91,0,0,0,.36-.13,2.41,2.41,0,0,0,1.6-3,2.28,2.28,0,0,0-.15-.36A39,39,0,0,1,86.76,87.64Z"/><path class="cls-4" d="M152.89,64.07a44.78,44.78,0,0,0-45.5-19.93,45.29,45.29,0,0,0-28.66,71.31A153.32,153.32,0,0,0,93.08,132a18.68,18.68,0,0,1,5.78,13.3c0,3,1.5,3.81,4.23,3.69,4.44-.21,8.89-.21,13.33-.3s8.9-.28,13.34-.22c3,0,4.29-1.27,4.13-4.19a17.73,17.73,0,0,1,4.91-13,137.46,137.46,0,0,0,14-17.66A43.91,43.91,0,0,0,152.89,64.07Zm-6,49c-3.75,5.14-7.87,10-12,14.78a20.77,20.77,0,0,0-5.92,13c-.06,1.82-.94,2.27-2.62,2.24-3.39,0-6.78.1-10.16.17l-2.86,0a22.86,22.86,0,0,1-7.87,0c-2.65-1-1.46-4.56-2.58-6.82a29.89,29.89,0,0,0-4.76-7.06c-4.74-5.13-9.58-10.17-13.86-15.71A39.89,39.89,0,1,1,154.81,83a40.71,40.71,0,0,1-7.88,30.12Z"/><path class="cls-3" d="M117.25,56.33c-.11-2.37-1.84-2.49-3.65-2.39l-.95.07A33.17,33.17,0,0,0,84.49,74c-.79,1.72-1,3.39.94,4.32s3-.39,3.84-2.1a31,31,0,0,1,2.6-4.68,28.17,28.17,0,0,1,22-12.45C115.81,59,117.36,58.62,117.25,56.33Z"/><path class="cls-3" d="M129.48,82.29a41.62,41.62,0,0,0-4,1.92,5.27,5.27,0,0,1-7.44-.46c0-.06-.11-.12-.16-.19a3.1,3.1,0,0,0-4.31-.85,3.24,3.24,0,0,0-.86.87,5.42,5.42,0,0,1-7.58,1.13l-.26-.2A21.17,21.17,0,0,0,102,83.19c-1.48-.6-3-1.29-4.36.21s-.45,2.87.35,4.3a73.2,73.2,0,0,1,9.16,25.07A151.69,151.69,0,0,1,108.66,134c0,1.87.82,3.19,2.71,3.22a2.55,2.55,0,0,0,2.64-2.45,2.92,2.92,0,0,0,0-.51,187.52,187.52,0,0,0-1.64-23.08,81.1,81.1,0,0,0-6.58-20.31,8,8,0,0,0,8.63-1.76c.44-.43,1-.93,1.63-.3a8.31,8.31,0,0,0,9.11,1.69,71.46,71.46,0,0,0-6.28,25.79c-.27,5.91-.28,11.83-.33,17.75a2.64,2.64,0,0,0,2.25,3,1.59,1.59,0,0,0,.38,0c1.86,0,2.76-1.31,2.69-3.2,0-.95,0-1.9-.06-2.85a103.05,103.05,0,0,1,2.06-26.16,75.73,75.73,0,0,1,7.24-18.46,2.72,2.72,0,0,0-.14-3.5A2.67,2.67,0,0,0,129.48,82.29Z"/><rect class="cls-3" x="113.61" y="17.17" width="7.29" height="15.24"/><rect class="cls-3" x="77.77" y="26.2" width="7.29" height="15.24" transform="translate(-6 45.24) rotate(-30)"/><rect class="cls-3" x="55.33" y="48.52" width="7.29" height="15.24" transform="translate(-19.13 79.14) rotate(-60)"/><rect class="cls-3" x="43.89" y="85.67" width="15.24" height="7.29" transform="translate(-0.9 0.53) rotate(-0.58)"/><rect class="cls-3" x="52.74" y="118.73" width="15.24" height="7.29" transform="translate(-53.1 46.58) rotate(-30)"/></svg>