<svg xmlns="http://www.w3.org/2000/svg" width="207.5027" height="224" viewBox="0 0 207.5027 224"><defs><style>.cls-1{fill:#13a3ac;}</style></defs><title>Asset 18</title><g id="Layer_2" data-name="Layer 2"><g id="Layer_1-2" data-name="Layer 1"><g id="upVvK4"><path class="cls-1" d="M98.8256,224c-5.646-2.9454-11.8437-5.1762-16.8058-9.0074-7.057-5.4487-9.79-13.6244-10.3-22.9926H57.2523q-20.2493,0-40.4987.0066A16.2164,16.2164,0,0,1,2.97,185.2517c-4.2674-5.7556-3.9925-8.1917,1.1907-13.0359,18.3737-17.1717,28.3571-38.7707,32.44-63.1687,1.8061-10.7922,3.4073-21.8693,2.9841-32.7346C38.5207,48.9894,59.2734,25.2,83.4987,18.9646c2.8855-.7427,5.7926-1.4015,9.0478-2.1855C90.2481,8.673,93.7235,3.3973,100.8256,0h6c8.0754,4.5149,9.952,8.2207,8.2485,16.6345,3.7977,1.03,7.6233,2.0367,11.4317,3.105,20.9348,5.8721,42.0264,28.1266,41.54,56.0734-.4651,26.746,4.0123,52.8563,18.9153,75.8586,5.1916,8.013,12.0284,14.9987,18.4469,22.1548,1.9359,2.1584,2.5963,3.7838,1.7012,6.5353-2.3118,7.1069-8.25,11.593-16.2117,11.6209-16.3316.0573-32.6636.0174-48.9954.0176H136.04c-.6877,10.454-4.4586,19.3853-13.03,25.2992-4.2473,2.93-9.4267,4.51-14.1844,6.7008Zm85.3655-48.2182c-4.3406-6.3939-8.6947-12.1038-12.3061-18.25-15.12-25.7319-19.57-54.1275-19.972-83.3888a38.4632,38.4632,0,0,0-5.711-20.3279C133.47,33.266,104.3076,25.6491,80.7107,36.77,66.4024,43.5138,57.6263,54.5514,55.919,70.44c-1.0835,10.0823-.9275,20.301-2.0821,30.372-3.0077,26.2346-11.34,50.477-28.1333,71.3308-.8656,1.0749-1.5736,2.2768-2.5054,3.6395Zm-81.2179,38.239,2.7772-1.78c-1.1908-.7638-2.2965-1.9738-3.586-2.22Q88.37,207.3888,85.7884,193.5838c-.2381-1.2681-1.4969-2.3446-2.2832-3.51-.5517,1.3748-1.6079,2.7621-1.5742,4.1224C82.1749,204.0245,91.9049,213.6521,102.9731,214.0208Z"/></g></g></g></svg>