<svg id="Layer_1" data-name="Layer 1" xmlns="http://www.w3.org/2000/svg" viewBox="0 0 281.73 246.37"><defs><style>.cls-1{fill:#20a1aa;}</style></defs><title>Business Icon</title><path class="cls-1" d="M128.12,125.7c-7.17-.93-8.57-1.23-16.22-2.22,0,4.76-.37,8.7.08,12.56.67,5.71-1.58,9.18-7.48,11.16V123.54l-23.3,2.87c3.79,7.45,6.53,14.26,10.6,20.14,1.49,2.15,8.86,2.73,12.62,3.87-.36,2.82-.41,11.08-2.63,10.52-3.12-.78-11.23-3.12-13.22-4-28.83-9.3-46.5-28.7-51.23-58.8C32.76,69,46.91,40.68,72.51,26a71.51,71.51,0,0,1,79.68,5.86c1.53,1.21,2.95,2.57,5.22,4.55-4.31,1.3-8,3.57-11.23,3.07s-6.29-3.73-10.29-5c.71,1.72,1.4,3.44,2.13,5.15S139.44,42.78,140,44c-3.56,4.33-6.69,8.51-10.25,12.27a10.46,10.46,0,0,1-5.55,2.5c-3.86.68-7.81.86-12,1.26V83.85c2.5.18,12.36.52,15,.72,0,2.45-.15,4.3-.15,6.77-2.55.21-12.12.61-14.77.83V116.1c4.65.5,12.92,1.59,17.53,1.85M78.7,119.36l25-3.45V92.32H74.52C75.94,101.5,77.27,110.12,78.7,119.36Zm0-62.47c-1.37,9-2.71,17.88-4.09,26.89H104V60.28Zm-31.89,35a59.46,59.46,0,0,0,13,34.28l11.52-4.47c-1.32-9.27-2.44-18-3.92-26.65a4.66,4.66,0,0,0-3.23-3C58.65,91.74,53.09,91.92,46.8,91.92ZM71.37,54.51a96.2,96.2,0,0,0-9.17-3.43c-1.17-.32-3.32.19-4,1.08-6.7,9.35-10.86,19.67-11.28,32,6.24,0,12.14.17,18-.17,1,0,2.31-2.28,2.54-3.65C68.91,72,70,63.67,71.37,54.51Zm32.46-1.76v-27C99,27.48,93.49,27.79,91.19,30.65c-4.14,5.18-6.38,11.88-9.92,19Zm30.63-3.16c-2.54-5.46-4.51-10.05-6.78-14.48-3.78-7.35-6.52-8.64-15.43-7.69v25.3ZM80.33,34.37l-1.08-1L64.83,43.84l9.52,3.5C76.48,42.73,78.41,38.55,80.33,34.37ZM64.71,132.44,79.6,142.86l.83-1-6.19-12.94Z"/><path class="cls-1" d="M150.8,127.6c-.5,6.58-.2,12.56-1.53,18.14-2.17,9.09-.11,16.4,6.39,22.86,2.05,2,3.61,4.56,6.2,7.9.2-3,.15-4.93.47-6.77,1-5.74,1.91-11.5,3.31-17.14.68-2.75,1.35-5-1-7.28a4,4,0,0,1-.17-6.09c1.73-1.89,6.71-2,8.58-.14s2,4.23.11,6c-2.5,2.41-1.81,4.76-1.11,7.64,1.4,5.78,2.31,11.69,3.27,17.57a30.61,30.61,0,0,1,0,5.07l1.22.55c4.2-5.85,8.8-11.47,12.37-17.68,1.21-2.09-.15-5.69-.4-8.59-.61-7-1.25-14-1.95-21.94,5.77,2.58,10.62,4.94,15.62,6.92,4.56,1.81,9.23,3.38,13.95,4.74a10.28,10.28,0,0,1,7.15,7.49c2.67,9.05,5.32,18.15,7.24,27.38,1.77,8.54,1.39,8.74-6.67,11.82-38.85,14.83-77.46,14-115.85-1.89-2.36-1-3.08-2.3-2.55-4.52,2.56-10.74,4.93-21.53,7.85-32.17,1.33-4.84,4.66-7.42,10.19-8.74,7.42-1.77,14.34-5.63,21.47-8.61C146.64,129.45,148.3,128.69,150.8,127.6Z"/><path class="cls-1" d="M153.52,117.13l-18.21-2.78c.46-1.91.91-3.79,1.49-6.16-5.22,6.48-5.22,6.48-11.75,2.69,7.11-8.71,8.35-19.42,10-29.93.85-5.53,1-11.16,1.56-16.74a30.41,30.41,0,0,1,6.9-16.34c2.51-3.12,5.56-5.39,10-4.81a3.3,3.3,0,0,0,2.17-.59c9.88-7.21,19.9-5,29.87-.38,13,6,16.95,17.11,17.15,30.47.1,7.06.72,14.12,1.39,21.15A27.22,27.22,0,0,0,212.26,111c-9.24,4.27-19,4.69-28.61,6.09-.12.24-.49.62-.43.92,1.91,10.09-6.9,13.1-12.35,18.13-1,.94-4.21,0-6.18-.72-1.39-.5-2.39-2.06-3.58-3.14C154.27,126.12,154.26,126.12,153.52,117.13Z"/></svg>