<svg xmlns="http://www.w3.org/2000/svg" width="103.5584" height="103.5584" viewBox="0 0 103.5584 103.5584"><defs><style>.cls-1{fill:#13a3ac;}.cls-2{fill:none;}</style></defs><title>Asset 14</title><g id="Layer_2" data-name="Layer 2"><g id="Layer_1-2" data-name="Layer 1"><g id="HqgZIW"><path class="cls-1" d="M92.999,29.3077c.2189-10.0557-8.2836-18.2245-17.3947-18.0919-15.8941.2314-31.7938.0327-47.691.0764-9.9141.0273-17.4,7.8041-17.4292,18.0158q-.0346,11.869-.0005,23.7382c.022,8.9558,5.8354,16.2481,14.3569,17.8855,1.2324.2368,1.5556.7031,1.548,1.8866-.03,4.7081.011,9.4167.02,14.1251.0057,3.1175.0011,6.235.0011,9.8077.662-.5057.9279-.6767,1.1579-.8891Q40.161,84.2341,52.7286,72.576a4.3856,4.3856,0,0,1,3.2-1.2876c7.0871-.0877,14.1825.3717,21.2611-.2312,9.0824-.7734,15.726-8.1993,15.7664-17.62C92.9905,45.3941,92.824,37.3472,92.999,29.3077ZM87.5743,53.6439a11.9292,11.9292,0,0,1-11.748,11.8836c-7.22.0316-14.44.0406-21.6588-.02a4.6652,4.6652,0,0,0-3.5317,1.4043c-5.8875,5.5494-11.8563,11.0068-17.8014,16.491-.2224.2051-.4261.5-.8624.3629-.4023-.5427-.19-1.2162-.1946-1.8337-.0325-4.1847-.0312-8.37-.0422-12.5546-.01-3.8288-.011-3.853-3.6408-3.83a12.16,12.16,0,0,1-4.1121-.5864,11.8859,11.8859,0,0,1-7.8861-11.1221c-.0517-8.4348-.0672-16.8707.0048-25.3052a11.6322,11.6322,0,0,1,11.4446-11.68q24.2237-.0607,48.4477,0A11.971,11.971,0,0,1,87.5743,28.7311Q87.69,41.1866,87.5743,53.6439Z"/><path class="cls-1" d="M30.75,47.0753a5.1742,5.1742,0,0,1-5.0669-5.1974,5.0793,5.0793,0,0,1,10.1584-.0373A5.3473,5.3473,0,0,1,30.75,47.0753Z"/><path class="cls-1" d="M51.6589,36.8a5.028,5.028,0,0,1,5.1361,5.0948,5.1988,5.1988,0,0,1-4.9,5.1795,5.3431,5.3431,0,0,1-5.267-5.0552A5.0588,5.0588,0,0,1,51.6589,36.8Z"/><path class="cls-1" d="M72.8892,36.8019a5.1413,5.1413,0,0,1-.2563,10.2735,4.914,4.914,0,0,1-4.8544-5.3033A4.7223,4.7223,0,0,1,72.8892,36.8019Z"/></g><circle class="cls-2" cx="51.7792" cy="51.7792" r="51.7792"/></g></g></svg>