<?xml version="1.0" encoding="utf-8"?>
<!-- Generator: Adobe Illustrator 23.0.2, SVG Export Plug-In . SVG Version: 6.00 Build 0)  -->
<svg version="1.1" id="Layer_1" xmlns="http://www.w3.org/2000/svg" xmlns:xlink="http://www.w3.org/1999/xlink" x="0px" y="0px"
	 viewBox="0 0 200.3 230.4" style="enable-background:new 0 0 200.3 230.4;" xml:space="preserve">
<style type="text/css">
	.st0{fill:#22A1AA;}
</style>
<g>
	<path class="st0" d="M70.1,73.2c4.8-5.2,9.4-10.3,14.2-15.6c-7.6-8.8-10.5-19-7.8-30.4c1.8-7.9,6.2-14.3,12.8-19
		c13.3-9.7,31.8-8.1,43.2,3.8c11.5,11.9,12.5,30.2,2.5,43.3c-10,13-28.6,17.2-44.1,7.7c-4.8,5.2-9.6,10.5-14.6,15.9
		c6,7,9.6,15,10.5,24.1c0.9,9.1-1,17.5-5.5,25.6c4.9,3.2,9.6,6.3,14.4,9.4c11.4-14.5,26.1-22.6,44.4-23.2c14.7-0.5,27.8,4.1,39,13.8
		c22.4,19.3,26.5,51.9,9.8,76c-16.7,24.1-48.8,31.7-74.6,17.5c-26.1-14.3-38-47.4-23-77c-4.9-3.2-9.8-6.4-14.8-9.7
		c-10,10.5-22,15.4-36.4,13.9c-9.9-1-18.4-5.2-25.4-12.3c-15.2-15.5-16.4-39.5-2.9-56.2C25.1,63.8,50.3,59,70.1,73.2z M141.7,219.3
		c26.3,0.1,47.4-21.1,47.4-47.4c0-26-21.1-47.2-47.1-47.3c-26.3-0.1-47.6,21-47.6,47.2C94.4,198.1,115.4,219.3,141.7,219.3z
		 M9.5,107c0.1,19.8,15.7,35.4,35.4,35.3c19.4-0.1,34.8-16,34.7-35.6c-0.1-19-16-34.6-35.1-34.6C25.4,72.1,9.4,88,9.5,107z
		 M108.9,7.6c-15-0.2-27.4,11.9-27.6,26.8C81.1,49.8,93,62.3,108.2,62.5c15.3,0.2,27.7-11.8,27.8-27C136.2,20.1,124.2,7.8,108.9,7.6
		z"/>
	<path class="st0" d="M151.4,182.7c-0.4,2.1,0.6,3.4,2.4,4c4,1.4,8,2.7,12,4.1c3,1.1,5.9,2.3,9.2,3.7c-8.6,11.7-19.5,17.8-33.4,17.8
		c-13.8,0-24.6-6-32.9-17c2.9-2.4,6.2-3.3,9.4-4.4c4-1.4,8-2.7,12-4.1c1.8-0.6,2.6-1.9,2-3.9c-5.5-0.4-11.1-0.8-15.6-5.1
		c5.1-2.7,5.7-7.6,6.2-12.4c0.5-5.2,0.3-10.4,0.9-15.6c1.2-8.7,6.3-13.7,14.7-15.1c3.3-0.5,6.4,0.3,9.1,2.2c0.6,0.4,1.3,0.8,2,0.8
		c5.1,0,8.2,2.8,9.9,7.3c2.2,5.7,1.9,11.6,1.5,17.5c-0.1,2.3-0.1,4.7,0.2,7c0.5,3.5,2.2,6.5,5.5,8.2
		C164.3,180.5,161,181.6,151.4,182.7z"/>
	<path class="st0" d="M19.6,123.7c2.2-0.6,3.9-1,5.5-1.6c2.8-1,5.5-2,8.2-3.1c2.2-0.9,2.7-2.9,1.7-5.2c-1.8-4-3.5-8.1-5-12.2
		c-0.5-1.4-0.8-3.2,1.3-4C29.7,90.2,32.9,85,39,81.2c4.9-3.1,11.5-2.1,15.4,2.2c0.3,0.3,0.5,0.8,0.8,0.9c4.4,1.9,4.3,5.8,4.2,9.6
		c0,2.1-0.3,4.1,0.1,6.3c0.4,2.8-0.1,6-3,8c-0.3,0.2-0.5,0.8-0.6,1.2c-0.6,1.4-1,2.8-1.7,4.2c-1.3,2.4-0.6,4.8,2,5.7
		c3.6,1.3,7.3,2.4,10.9,3.6c0.7,0.2,1.4,0.4,2.4,0.8c-5.5,7.9-12.8,12.4-22.1,13.2C35.9,137.8,26.7,133.3,19.6,123.7z"/>
	<path class="st0" d="M128.1,48.1c-5.4,7.2-12.3,10.8-21,10.2c-7.5-0.5-13.3-4-17.8-10.2c3.6-1.3,7.1-2.4,10.4-3.8
		c0.8-0.3,1.4-1.5,2-2.3c0.1-0.2,0.1-0.6,0.1-0.8c-1-2.2-2.1-4.4-3-6.6c-0.9-2.3-2.8-4.6-0.5-7.2c0.3-0.3,0-1.2-0.1-1.8
		c-0.5-4.6,2.3-9.1,7.2-11.4c3.7-1.8,7.6-0.4,11.3,2.3c4,2.8,3.9,6.2,3.5,10.3c-0.2,1.9,0.2,3.9-0.1,5.7c-0.2,1.2-1.4,2.2-2,3.3
		c-0.9,1.9-1.9,3.8-2.3,5.8c-0.2,1.2,0.5,2.4,2.1,2.9C121.1,45.6,124.4,46.8,128.1,48.1z"/>
</g>
</svg>
