<svg xmlns="http://www.w3.org/2000/svg" width="110.3453" height="107.1476" viewBox="0 0 110.3453 107.1476"><defs><style>.cls-1{fill:#13a3ac;}</style></defs><title>Asset 15</title><g id="Layer_2" data-name="Layer 2"><g id="Layer_1-2" data-name="Layer 1"><g id="W6a3ZL"><path class="cls-1" d="M89.9346,2.731c1.2454,4.4734-.6252,7.9446-3.2412,12.068V6.3008H3.5757v97.2147H63.4382V86.4376H86.5174c.06-1.3018.1425-2.2686.1437-3.2356q.0151-12.4167.0035-24.8334c-.0037-5.0625.15-5.5788,3.3846-10.4631.0839.9562.187,1.5868.1876,2.2174.0113,12.0984-.0159,24.1969.0446,36.2951a3.9864,3.9864,0,0,1-1.6553,3.6895c-7.0823,5.2516-14.0811,10.6158-21.158,15.8748a5.3252,5.3252,0,0,1-2.8983,1.1212q-31.6553.0913-63.3111.0355c-.3564,0-.7129-.0747-1.2588-.1357V2.731Zm-6.946,87.2266H67.209v11.8985Z"/><path class="cls-1" d="M82.1486,30.024l10.5908,5.6576c-2.07,4.0136-4.046,7.8574-6.034,11.695C84.2,52.2136,81.6766,57.0416,79.1745,61.88c-4.1522,8.03-8.0825,12.4487-16.28,18.07.24-2.5176.5308-4.6923.6395-6.8761a34.3316,34.3316,0,0,1,4.27-15.5313C72.8173,48.6111,77.3069,39.3853,82.1486,30.024Z"/><path class="cls-1" d="M106.517,9.7617c.5585.3357,1.0756.6953,1.6333.9732,2.22,1.1058,2.7508,2.7433,1.6164,4.9389-3.2087,6.21-6.3777,12.4421-9.6783,18.6034-.3542.6612-1.47.9142-2.2329,1.3566-.0423-.887-.4182-1.9388-.0743-2.6348,2.7747-5.6145,5.6577-11.1763,8.5706-16.7211.8347-1.5889,1.1556-2.8995-1.2684-3.889L94.63,32.4136,83.9375,26.9222c1.9095-3.8,3.7487-7.4993,5.6241-11.18,1.69-3.3163,3.2544-6.7131,5.1928-9.8793a15.3771,15.3771,0,0,1,4.4994-4.95,7.4128,7.4128,0,0,1,5.2634-.721c2.2024.5534,2.5948,2.878,2.5842,4.9321A37.31,37.31,0,0,1,106.517,9.7617Z"/><path class="cls-1" d="M25.5346,30.3776c4.1122-2.9557,6.1872-3.0619,10.49-.2608a9.86,9.86,0,0,1,3.9479,10.7856,3.7862,3.7862,0,0,1-2.75,2.2538c-8.08.1807-16.1659.1011-24.25.1034-2.0079.0006-2.907-.9123-2.9515-3-.1524-7.1452,2.7153-11.0075,9.7675-12.025C21.4121,28,23.2845,29.4878,25.5346,30.3776Zm-.3777,9.7551c3.2063-2.8938.6506-5.6548-.0932-8.438C24.8077,34.49,21.9475,37.3177,25.1569,40.1326Z"/><path class="cls-1" d="M24.9654,11.5962a7.8478,7.8478,0,0,1,7.51,8.0527,7.7647,7.7647,0,0,1-7.6772,7.8424,7.8311,7.8311,0,0,1-7.5493-8.0074A7.9573,7.9573,0,0,1,24.9654,11.5962Z"/><path class="cls-1" d="M35.6737,57.7608q-10.7781.0014-21.5561-.0026a9.7629,9.7629,0,0,1-2.7083-.1362c-.543-.1612-1.29-.91-1.2665-1.36.0254-.4894.7627-1.1047,1.3272-1.3562a4.9238,4.9238,0,0,1,1.8866-.0925q22.3754-.0037,44.7509.0014a5.4381,5.4381,0,0,1,2.15.1322,2.2805,2.2805,0,0,1,1.1051,1.5365c.05.3382-.667,1.0175-1.1484,1.152a9.263,9.263,0,0,1-2.4384.1215Q46.7247,57.7649,35.6737,57.7608Z"/><path class="cls-1" d="M34.6134,70.2q10.2326-.0039,20.4651,0a6.2869,6.2869,0,0,1,2.1605.1111c.5614.2159,1.3324.8955,1.3139,1.3413-.0207.4965-.75,1.1595-1.3156,1.3851a6.0955,6.0955,0,0,1-2.1583.1165q-20.7381.0057-41.4763.0028a1.388,1.388,0,0,1-.5411-.01c-1.015-.48-2.017-.9868-3.0233-1.485,1.0061-.4864,2.0054-1.3771,3.02-1.3944C20.2413,70.1455,27.4278,70.2026,34.6134,70.2Z"/><path class="cls-1" d="M60.8238,20.7739c4.6357,0,9.2736-.0708,13.9053.0659.8242.0243,1.623.91,2.4336,1.3978-.7684.4554-1.533,1.2993-2.3058,1.307q-13.9072.139-27.8159-.0034c-.812-.009-1.6138-.9438-2.42-1.4486.8561-.4432,1.7021-1.2449,2.57-1.2695,4.5413-.1286,9.0882-.06,13.6332-.06Z"/><path class="cls-1" d="M57.4623,39.8707c-3.4483.0015-6.9013.0981-10.3417-.0667-.8545-.0409-1.6685-.9277-2.5011-1.4257.8306-.4916,1.6544-1.3961,2.4929-1.41q10.6143-.1748,21.2322-.0084c.8172.0126,1.6207.9135,2.4305,1.4025-.8078.5022-1.598,1.4016-2.4263,1.4381C64.7259,39.96,61.0921,39.8692,57.4623,39.8707Z"/><path class="cls-1" d="M24.2418,85.63c4.0784,0,8.159-.0681,12.2331.0637.7214.0233,1.4158.88,2.1226,1.3517-.7395.4837-1.4738,1.3787-2.2192,1.388q-12.0977.1515-24.1976-.0023c-.7186-.0092-1.4255-.932-2.1378-1.43.7451-.4569,1.4779-1.2835,2.2373-1.3087C16.2637,85.56,20.2539,85.63,24.2418,85.63Z"/></g></g></g></svg>