<svg xmlns="http://www.w3.org/2000/svg" width="225" height="193.3372" viewBox="0 0 225 193.3372"><defs><style>.cls-1{fill:#13a3ac;}</style></defs><title>Asset 17</title><g id="Layer_2" data-name="Layer 2"><g id="Layer_1-2" data-name="Layer 1"><g id="hFkdAf"><path class="cls-1" d="M0,4.1411C1.6612.9932,4.2308-.0058,7.7921,0Q88.7612.1335,169.7307.0685c6.0746.0013,7.7785,1.555,7.7861,7.6539q.0769,61.7265.0083,123.4532c-.0042,4.9546-2.3162,8.0815-5.8209,7.73-4.5619-.457-5.7529-3.58-5.7451-7.8035q.1056-56.4784.0408-112.9572c0-1.99,0-3.98,0-6.3665H12.1338V169.9839H17.9q47.7319,0,95.4639.0059c1.6637,0,3.7387-.5187,4.8972.27,1.854,1.2615,4.2343,3.3844,4.2856,5.2026.0517,1.8341-2.2525,3.9726-3.9481,5.5107-.7691.6977-2.5611.3383-3.8892.3388-35.4866.013-70.9732-.0255-106.46.0646-3.666.0093-6.5451-.7794-8.25-4.235Z"/><path class="cls-1" d="M225,128.1411c-7.0373,6.5557-13.9872,13.2082-21.13,19.6472q-23.3608,21.06-46.88,41.9438c-6.9385,6.1969-15.0548,4.222-18.0761-4.5179-3.6888-10.6708-7.1792-21.41-10.7883-32.1086-1.1655-3.4548-1.3255-6.8158,2.3641-8.6425,3.5675-1.7663,6.301.0189,8.5015,3.0495,4.192,5.7733,8.5164,11.4505,13.05,17.521,5.6362-3.826,11.0849-7.5088,16.5174-11.2155q22.45-15.318,44.8933-30.6456c5.28-3.5962,7.2695-3.396,11.548.9686Z"/><path class="cls-1" d="M88.7045,124.0037q-21.733,0-43.466-.0029a25.6656,25.6656,0,0,1-3.99-.0955c-3.136-.4984-5.21-2.1816-5.2927-5.5836-.0826-3.3842,1.819-5.25,4.9849-5.8249a25.2668,25.2668,0,0,1,4.4791-.185q43.466-.0133,86.9321-.0033c1.3314,0,3.0547-.4739,3.9161.175,2.06,1.5517,4.8149,3.408,5.2746,5.57.6981,3.2833-1.9662,5.4025-5.38,5.86a30.26,30.26,0,0,1-3.9913.0872Q110.4375,124.0075,88.7045,124.0037Z"/><path class="cls-1" d="M88.4952,87.1411q22.2244,0,44.4487.0044c1.33.0006,3.0822-.46,3.9045.2029,1.893,1.5268,4.5708,3.5911,4.6061,5.4808.0344,1.8447-2.5964,4.0282-4.4941,5.4995-.9669.75-2.8931.3238-4.3857.3244q-43.7.0184-87.3992.0065c-1.1648,0-2.3361.0328-3.4932-.0724-3.4169-.3105-5.7444-1.9535-5.7094-5.6161.0367-3.8432,2.3982-5.6284,6.0765-5.8139,1.4945-.0754,2.9959-.0158,4.4942-.0159Q67.5194,87.1408,88.4952,87.1411Z"/><path class="cls-1" d="M88.6561,73.3222c-14.9833,0-29.9668-.0425-44.95.028-4.0612.0191-7.454-.6946-7.7312-5.5878-.2193-3.8707,2.2913-5.7439,7.5551-5.7476,30.1331-.0213,60.2663.0245,90.3993-.0515,4.16-.01,7.4139.9189,7.8287,5.6228.3214,3.6443-2.5735,5.7173-7.6526,5.7263Q111.3809,73.353,88.6561,73.3222Z"/><path class="cls-1" d="M88.54,48.1632q-22.4746,0-44.9492-.0076c-5.1954-.0073-7.746-1.8764-7.6247-5.7247.1573-4.9921,3.6516-5.6936,7.6554-5.6918q45.1989.02,90.3979.0205c5.0481.0046,8.0282,2.1373,7.72,5.7135-.3986,4.6244-3.531,5.7662-7.7509,5.7346C118.84,48.0945,103.69,48.1633,88.54,48.1632Z"/><path class="cls-1" d="M65.0625,148.14c-7.1605,0-14.3215.0518-21.4814-.0174-5.1261-.05-7.7368-2.0625-7.6109-5.9091.16-4.9032,3.5767-5.8591,7.6-5.862q21.7313-.0154,43.4627-.0039c3.8895,0,7.0254,1.1393,7.4,5.614.3123,3.732-2.5543,6.1062-7.3894,6.1579C79.7171,148.1979,72.3895,148.14,65.0625,148.14Z"/></g></g></g></svg>