<svg xmlns="http://www.w3.org/2000/svg" width="235.7753" height="235.759" viewBox="0 0 235.7753 235.759"><defs><style>.cls-1{fill:#fff;}</style></defs><title>Asset 18</title><g id="Layer_2" data-name="Layer 2"><g id="Layer_1-2" data-name="Layer 1"><g id="uEnDNS"><path class="cls-1" d="M115.7787.014c64.2163-.976,118.1689,49.0188,119.9512,114.65A117.3049,117.3049,0,0,1,121.0183,235.7208C54.9331,237.3763.8684,185.0739.0105,119.8976-.8482,54.656,50.9575,1.0086,115.7787.014Zm34.1555,48.8a3.2151,3.2151,0,0,0-.8176-.2707c-7.9138-.0129-15.8477-.3725-23.7368.0674-13.4063.7476-22.0445,7.8326-25.078,20.382-.9256,3.8293-.9071,7.9061-1.1274,11.88-.1689,3.0477-.0336,6.1124-.0336,9.5205H85.5734v28.025H99.3877v69.3694h27.949V118.2724h20.5793l2.56-28.0368H128.5521a7.6709,7.6709,0,0,1-.1873-1.0318c-.0151-2.9992-.03-5.9985-.0216-8.9977.0164-5.8748,1.8965-7.7352,7.809-7.7416,4.5566-.0049,9.1132-.001,13.782-.001Z"/></g></g></g></svg>