<svg xmlns="http://www.w3.org/2000/svg" width="135.897" height="162.709" viewBox="0 0 135.897 162.709"><defs><style>.cls-1{fill:#13a3ac;}</style></defs><title>Asset 14</title><g id="Layer_2" data-name="Layer 2"><g id="Layer_1-2" data-name="Layer 1"><g id="mN3qdE"><path class="cls-1" d="M53.4627,66.0449c-.7219,1.7823-1.3775,3.5965-2.2072,5.3271a2.2179,2.2179,0,0,1-1.4946,1.0869,6.5539,6.5539,0,0,1-7.24-6.3311c-.2506-6.784-.5138-13.57-.5965-20.3571a18.2322,18.2322,0,0,1,6.685-14.6323c.3525-.3022.7034-.6063,1.5161-1.3072-1.7371.1-2.9738.2369-4.21.2324-9.6791-.0351-18.5637,3.61-27.73,5.95a5.5648,5.5648,0,0,1-6.6474-2.9887,5.4447,5.4447,0,0,1,3.2384-7.6225c6.4847-1.9654,13.02-3.764,19.5439-5.5985a8.7751,8.7751,0,0,0,2.283-.63q-3.9061-.8245-7.8121-1.65c-3.2857-.6976-6.5983-1.2918-9.8471-2.1325A5.2271,5.2271,0,0,1,15.253,9.0242a5.3726,5.3726,0,0,1,6.2-3.9913c1.7389.3194,3.4668.6993,5.1989,1.0556,3.8583.7937,7.7161,1.59,11.8811,2.4478-.2474-.4924-.3374-.72-.4669-.9218a4.8957,4.8957,0,0,1-.01-5.9244C39.3654.0433,41.4647-.4475,43.8273.4278c4.9185,1.8221,9.7961,3.758,14.7391,5.51a97.3885,97.3885,0,0,0,30.7459,6.01c5.366.1063,10.7236.5956,16.0883.8361,1.1839.0531,1.6033.539,1.7812,1.64q2.301,14.2307,4.6933,28.4464a2.6394,2.6394,0,0,1-1.1664,2.7982A55.9491,55.9491,0,0,1,93.258,55.9225c-9.36,3.2889-17.5559,8.8122-26.1838,13.507-2.02,1.0992-3.9674,2.3458-6.0417,3.3269A9.5566,9.5566,0,0,1,57.17,73.7728c-3.0236.0211-3.7835-.9817-3.5075-3.941.1145-1.228.1456-2.4638.2146-3.696Zm1.997-6.1842.7411.2026c5.1764-2.9158,10.3809-5.7838,15.5008-8.7957A4.925,4.925,0,0,0,73.57,48.8037a9.7363,9.7363,0,0,0-.4208-7.7372c-1.7146-3.5609-5.5465-5.5431-9.1223-3.9533-2.8208,1.2541-5.226,3.5017-7.6816,5.4751a3.4923,3.4923,0,0,0-.8483,2.4254C55.421,49.9618,55.46,54.9115,55.46,59.8607Z"/><path class="cls-1" d="M91.6335,127.11c0,.684-.0251,1.3691.0038,2.052q.6254,14.7635,1.2637,29.5264c.0126.2947.0411.59.0377.884-.0211,1.8205-.9383,2.9777-2.4665,3.1225-1.49.1411-2.6733-.8959-2.947-2.6743-.3945-2.5627-.736-5.1336-1.1022-7.7006-.5892-4.1306-1.18-8.2609-2.1126-12.3958q-.9223,6.4758-1.8458,12.9513c-.3431,2.3917-.6745,4.7855-1.0567,7.1711-.2855,1.7818-1.4727,2.808-2.9524,2.6453-1.5287-.1681-2.4415-1.2933-2.3681-3.16.4006-10.1971.8384-20.3927,1.2582-30.589.0247-.5994.0032-1.2007.0032-1.8011l-.4323-.03c-.7543,3.24-1.4505,6.4946-2.3022,9.7084a4.091,4.091,0,0,1-1.4635,2.2455,2.3305,2.3305,0,0,1-2.2354-.1023,3.5415,3.5415,0,0,1-1.0754-2.5385c.3354-3.2189.9239-6.4118,1.432-9.6121.5544-3.4917,1.1257-6.9808,1.6868-10.4715a5.7479,5.7479,0,0,1,5.82-5.115,3.5618,3.5618,0,0,1,1.5995.5912,7.9742,7.9742,0,0,0,7.792.2193,5.2887,5.2887,0,0,1,7.7419,3.8477c.5226,2.8389.9393,5.6974,1.3979,8.548q.87,5.41,1.729,10.8224c.0736.4654.1138.9375.1439,1.4081a2.3706,2.3706,0,0,1-4.6777.7712c-.7095-2.8578-1.3632-5.7294-2.05-8.5928-.1441-.6-.334-1.19-.5028-1.784Z"/><path class="cls-1" d="M126.3751,127.1356c.1832,4.4144.3536,8.8293.5526,13.243q.4188,9.2875.87,18.5735c.0055.1179.0053.2361.0052.3542-.0021,2.0854-.911,3.29-2.5616,3.3946-1.5193.0966-2.5944-.9208-2.9052-2.942-.5555-3.6135-1.0331-7.2389-1.547-10.8588q-.6038-4.2535-1.2165-8.5058l-.4378-.0258c-.2849,1.8589-.5873,3.7153-.8514,5.5772-.6377,4.496-1.2571,8.9946-1.8859,13.4919-.0245.175-.0686.3473-.1052.5205-.3986,1.8911-1.4076,2.8456-2.8955,2.74-1.59-.1133-2.5622-1.2889-2.5032-3.2434.1086-3.599.292-7.1958.4542-10.793q.4508-9.9953.91-19.99c.023-.5112.003-1.0243.003-1.5364l-.4486-.0827c-.4454,1.84-.8965,3.678-1.3344,5.5194-.3681,1.5478-.6887,3.1077-1.0895,4.6469-.4294,1.649-1.5482,2.4348-2.9293,2.1442-1.3428-.2826-2.0783-1.5305-1.8217-3.1632,1.0342-6.5819,2.0631-13.1647,3.129-19.7415a5.7588,5.7588,0,0,1,5.7529-5.2161,3.76,3.76,0,0,1,1.7669.6107,7.9611,7.9611,0,0,0,7.7939.1436,5.2246,5.2246,0,0,1,7.553,3.4586c.8384,4.2188,1.427,8.4874,2.113,12.7362.4229,2.619.8272,5.241,1.2383,7.8619.2813,1.7938-.3959,3.0413-1.7977,3.3173-1.4259.2808-2.4946-.5258-2.9434-2.3553-.7439-3.0331-1.4223-6.0822-2.14-9.1217a4.9422,4.9422,0,0,0-.3286-.7794Z"/><path class="cls-1" d="M14.58,140.0462q-1.3076,9.1855-2.6172,18.3707c-.0917.6418-.2007,1.2814-.3174,1.9192a2.5637,2.5637,0,0,1-2.83,2.3434,2.5733,2.5733,0,0,1-2.461-2.8978c.1287-4.1874.3394-8.3723.5244-12.558q.4182-9.4622.84-18.9241a1.6179,1.6179,0,0,0-.445-1.2174c-.3092,1.2079-.6375,2.4114-.9235,3.6247-.5137,2.179-.9678,4.3726-1.5122,6.5437-.4062,1.62-1.6137,2.4724-2.96,2.0888A2.4174,2.4174,0,0,1,.05,136.3421c1.0753-6.8116,2.1282-13.6274,3.2922-20.4241A5.7153,5.7153,0,0,1,9.16,111.22a3.8968,3.8968,0,0,1,1.5921.636,7.8705,7.8705,0,0,0,7.7851.1236,5.2713,5.2713,0,0,1,7.5907,3.6609c.808,4.285,1.4258,8.606,2.1171,12.9128.411,2.56.824,5.1206,1.2,7.6861.2449,1.6686-.4871,2.8662-1.8407,3.1337-1.362.2692-2.4436-.5074-2.8722-2.2064-.72-2.8562-1.3685-5.7306-2.0541-8.5956a3.0976,3.0976,0,0,0-.699-1.4632c0,1.6426-.0624,3.2881.01,4.9275q.5847,13.1753,1.2248,26.348c.011.2358.02.4718.0249.7078.0476,2.2129-.8372,3.48-2.518,3.6072-1.6291.1234-2.6965-1.0376-3.0037-3.2462q-1.2671-9.1084-2.549-18.2148a9.9306,9.9306,0,0,0-.3061-1.1635Z"/><path class="cls-1" d="M49.4472,117.8857c-.322,2.1906-.6531,4.38-.9641,6.5721-.621,4.3761-1.2156,8.7559-1.8524,13.13-.2868,1.97-1.3561,2.962-2.96,2.86-1.666-.1062-2.5932-1.3009-2.5028-3.4052.3649-8.4875.7824-16.9728,1.133-25.4608a59.8384,59.8384,0,0,0-.1523-6.7813c-.36,1.409-.7391,2.8137-1.0769,4.2281-.4515,1.8906-.8428,3.7959-1.313,5.6816-.4734,1.8985-1.4,2.6408-2.8866,2.4182-1.4528-.2174-2.158-1.2984-1.8684-3.2283.8657-5.769,1.801-11.5276,2.7109-17.29.1378-.8728.2657-1.7479.4318-2.6154.5414-2.8277,1.89-4.3013,4.6994-4.7646a5.0346,5.0346,0,0,1,2.819.4822,8.2527,8.2527,0,0,0,7.8085.0234,5.174,5.174,0,0,1,7.3853,3.2961c.8721,4.0862,1.4169,8.2425,2.0938,12.37.4482,2.7326.8755,5.4686,1.3217,8.2016.3178,1.9466-.3094,3.2213-1.747,3.51-1.529.3073-2.5708-.5049-3.0379-2.4426-.7176-2.9773-1.3978-5.9636-2.1033-8.9438a.9564.9564,0,0,0-.6138-.6818c0,.8365-.0311,1.6743.0047,2.5092q.6264,14.5877,1.2683,29.1748c.0154.3533.0144.7084,0,1.0618a2.6446,2.6446,0,0,1-5.2544.4411c-.5367-3.1363-.9712-6.2905-1.4232-9.4409-.5184-3.6135-1.01-7.2308-1.5134-10.8465Z"/><path class="cls-1" d="M126.8822,4.4284a2.5213,2.5213,0,0,1,2.7538,2.396c1.1385,6.98,2.32,13.9522,3.4807,20.9283.8992,5.406,1.7813,10.8149,2.6883,16.22.3422,2.0392-.2393,3.0666-2.2641,3.4309-4.4655.8034-8.9438,1.5386-13.426,2.2439-1.5027.2364-2.5482-.6345-2.82-2.2664q-1.99-11.9452-3.9392-23.8973-1.1316-6.8917-2.2522-13.7852c-.2352-1.4332.2581-2.5886,1.6886-2.857C117.5389,5.95,122.3121,5.2,126.8822,4.4284Zm-1.229,32.3184a3.2309,3.2309,0,0,0-3.197,3.2788,3.1329,3.1329,0,0,0,3.1055,3.15,3.2484,3.2484,0,0,0,3.335-3.1443A3.3684,3.3684,0,0,0,125.6532,36.7468Z"/><path class="cls-1" d="M43.8706,81.7373a5.7424,5.7424,0,0,1,5.7965-5.6786A5.8058,5.8058,0,1,1,49.5815,87.67,5.7093,5.7093,0,0,1,43.8706,81.7373Z"/><path class="cls-1" d="M90.27,104.0916a5.8048,5.8048,0,1,1-11.61.0009,5.8049,5.8049,0,0,1,11.61-.0009Z"/><path class="cls-1" d="M20.5273,104.0543a5.7766,5.7766,0,0,1-5.8095,5.8635,5.8872,5.8872,0,0,1-5.757-5.7854,5.7546,5.7546,0,0,1,5.8586-5.8043A5.6542,5.6542,0,0,1,20.5273,104.0543Z"/><path class="cls-1" d="M125.0935,104.0438a5.7623,5.7623,0,1,1-11.5234.0991,5.7619,5.7619,0,1,1,11.5234-.0991Z"/></g></g></g></svg>