<?xml version="1.0" encoding="utf-8"?>
<!-- Generator: Adobe Illustrator 23.0.2, SVG Export Plug-In . SVG Version: 6.00 Build 0)  -->
<svg version="1.1" id="Layer_1" xmlns="http://www.w3.org/2000/svg" xmlns:xlink="http://www.w3.org/1999/xlink" x="0px" y="0px"
	 viewBox="0 0 206 223" style="enable-background:new 0 0 206 223;" xml:space="preserve">
<style type="text/css">
	.st0{fill:#22A1AA;}
</style>
<g>
	<path class="st0" d="M48.2,127.4c0-17.3,0-34.6,0-51.9c0-6.6,1.7-8.3,8.2-8.3c6.3,0,12.5-0.1,18.8,0c5.2,0,7.2,1.9,7.2,7.1
		c0.1,17,0,34,0,51.1c0,1.4-0.4,2.9-0.8,4.2c-4.6,12.8-4.2,25.5-0.1,38.5c1.6,5,1,10.9,0.5,16.4c-0.1,1.6-3.3,4-5.1,4.1
		c-7.5,0.5-15.1,0.3-22.7,0.1c-4-0.1-5.9-2.3-5.9-7c-0.1-13.5,0-27.1,0-40.6C48.2,136.5,48.2,132,48.2,127.4z"/>
	<path class="st0" d="M159.1,186.7c-25,16-51.1,7.5-64.2-9.5c-14.1-18.3-12.8-44,3.2-60.7c15.8-16.5,41.4-19,60.2-6.1
		c16.9,11.6,28.7,38.4,11.5,65.8c9,5.8,18.1,11.6,27.1,17.3c5.5,3.5,8.4,8.4,7.7,15c-0.7,6.6-5.3,11.6-11.7,13.1
		c-6,1.4-12.2-1.1-15.9-6.7c-5.3-8-10.4-16.2-15.5-24.2C160.8,189.4,160,188.2,159.1,186.7z M131.4,112.3
		c-20.3,0.3-36.6,16.9-36.2,36.9c0.4,20.4,17,36.2,37.7,35.9c19.5-0.3,35.7-17.3,35.3-37C167.8,128,151.4,112,131.4,112.3z"/>
	<path class="st0" d="M37.1,145.5c0,11.8,0,23.6,0,35.4c0,6.2-1.6,7.7-7.8,7.8c-6.5,0-13.1,0.1-19.6,0c-4.7-0.1-6.8-1.9-6.8-6.6
		c-0.1-24.3-0.1-48.6,0-72.9c0-4.5,2-6.3,6.5-6.4c7-0.1,14-0.1,21,0c5,0.1,6.7,1.8,6.8,7C37.1,121.6,37.1,133.6,37.1,145.5
		C37.1,145.5,37.1,145.5,37.1,145.5z"/>
	<path class="st0" d="M62,24.1c-8,11.1-15.8,21.8-23.5,32.5c-4.9,6.8-9.9,13.7-14.8,20.5c-2.7,3.8-5.6,4.7-8.4,2.8
		c-2.8-1.9-3-5.1-0.3-8.8c13.6-18.9,27.2-37.8,40.9-56.6c3.5-4.8,6.3-5,10.7-0.8c14.7,14.1,29.3,28.3,44,42.5c1,1,2.1,2,3.4,3.1
		c11.1-14.1,22-28.1,32.9-42c-2.7-2.4-5.1-4.6-8.5-7.8c10.1-2.9,19-5.5,29-8.3c-0.9,10.3-1.7,19.5-2.7,30.1
		c-3.8-2.9-6.5-4.9-9.5-7.2c-3.1,3.9-6.2,7.8-9.2,11.6c-8.6,11-17.2,22-25.8,33c-4,5.1-6.4,5.3-11,0.8C93.4,54.5,77.9,39.5,62,24.1z
		"/>
	<path class="st0" d="M173.1,114.2c-6.8-7.3-13.7-12.5-22-15.6c-1.8-0.7-3.6-1.3-5.4-1.7c-6.7-1.8-6.7-1.7-6.7-9
		c0-7.9,0-15.7,0-23.6c0-6.1,1.7-7.9,7.7-7.9c6.8-0.1,13.7,0,20.5,0c3.6,0,5.9,1.8,6,5.5C173.2,78.9,173.1,95.9,173.1,114.2z"/>
	<path class="st0" d="M93.6,110.9c0-8.1-0.1-14.7,0-21.4c0.1-4.6,2.2-6.6,6.8-6.6c6.3-0.1,12.5,0,18.8,0c7.3,0,8.7,1.4,8.6,8.6
		c0,1-0.1,2-0.2,3.5C115,96.5,103.6,101.2,93.6,110.9z"/>
</g>
</svg>
