<svg xmlns="http://www.w3.org/2000/svg" width="224.9817" height="224.9122" viewBox="0 0 224.9817 224.9122"><defs><style>.cls-1{fill:#fff;}</style></defs><title>Asset 22</title><g id="Layer_2" data-name="Layer 2"><g id="Layer_1-2" data-name="Layer 1"><g id="_7arkHQ" data-name="7arkHQ"><path class="cls-1" d="M224.9817,107.1622v9.75c-.329,2.8226-.6667,5.6442-.9857,8.4679-5.3037,46.96-40.651,86.3293-86.7713,96.4324-6.4161,1.4055-12.9914,2.0845-19.493,3.1h-10.5c-3.695-.4936-7.3925-.9691-11.0846-1.4835C35.7494,215.0124-7.1995,158.197,1.0051,97.5751a112.28,112.28,0,0,1,220.9471-9.5658C223.3332,94.3123,223.99,100.774,224.9817,107.1622Zm-112.5434,60.12c11.1154,0,22.2309.0357,33.3461-.01,12.4235-.0506,21.5151-9.0837,21.5488-21.5235q.09-33.3459.0035-66.6921c-.029-12.5127-8.9317-21.5522-21.4473-21.6092q-33.5327-.1526-67.0666.0018c-12.3486.06-21.2712,9.026-21.3143,21.3138q-.1176,33.533-.0043,67.0667c.0374,12.4767,9.08,21.3975,21.5881,21.4443C90.2075,167.3158,101.323,167.2829,112.4384,167.2818Z"/><path class="cls-1" d="M68.7935,101.5066h15.27c-4.409,15.2806-.6826,27.8165,12.647,36.3821,10.6552,6.847,22.0075,6.5758,32.3917-.6618,12.5588-8.7533,16.0343-21.0272,11.5687-35.7353h15.2144c.088,1.2561.229,2.3426.23,3.4293q.0231,19.8545.0022,39.7091c-.0173,7.7429-3.6926,11.4614-11.5188,11.48q-32.2167.0749-64.4336,0c-7.7333-.0178-11.56-3.8485-11.5863-11.4909-.0455-13.2362-.0178-26.4727-.0032-39.7091C68.5773,103.8165,68.7124,102.723,68.7935,101.5066Z"/><path class="cls-1" d="M131.3015,112.4014a18.9158,18.9158,0,0,1-37.8313-.04,18.9158,18.9158,0,1,1,37.8313.04Z"/><path class="cls-1" d="M154.16,70.7077V88.44H136.1239V70.7077Z"/></g></g></g></svg>