<?xml version="1.0" encoding="utf-8"?>
<!-- Generator: Adobe Illustrator 21.1.0, SVG Export Plug-In . SVG Version: 6.00 Build 0)  -->
<svg version="1.1" id="Layer_1" xmlns="http://www.w3.org/2000/svg" xmlns:xlink="http://www.w3.org/1999/xlink" x="0px" y="0px"
	 viewBox="0 0 145 48" style="enable-background:new 0 0 145 48;" xml:space="preserve">
<style type="text/css">
	.st0{fill:#11A1AB;}
	.st1{fill:#F37721;stroke:#F37721;stroke-width:0.25;stroke-miterlimit:10;}
	.st2{fill:#F37721;}
	.st3{fill:#F37721;stroke:#F37721;stroke-width:0.75;stroke-miterlimit:10;}
</style>
<title>Group 5</title>
<desc>Created with Sketch.</desc>
<g>
	<g>
		<path class="st0" d="M88.2,29.2c-0.7-1.9-2-3.3-3.8-4c2-1.1,3.1-3.1,3.1-6c0-1.9-0.5-3.5-1.6-4.7c-1.3-1.6-3.1-2.4-5.6-2.4l-7.9,0
			l2.6,2.9l5.6,0c1.5,0,2.6,0.5,3.3,1.4c0.3,0.4,0.6,0.9,0.8,1.4c0.2,0.5,0.2,1.1,0.2,1.8c0,0.7-0.1,1.3-0.4,1.9
			c-0.7,1.7-2.1,2.5-4.2,2.5l-4.6,0l-1.2,2.7l6.4,0c1.7,0,3,0.5,4,1.5c0.8,0.9,1.2,2,1.2,3.3c0,1.4-0.4,2.5-1.3,3.2
			c-0.9,0.8-2.1,1.1-3.7,1.1l-5.4,0v0h-5.1l-0.6,2.8l10.8,0.1c1.3,0,2.4-0.2,3.4-0.5c2.9-1.1,4.4-3.2,4.4-6.4
			C88.6,30.8,88.4,29.9,88.2,29.2z"/>
	</g>
</g>
<g>
	<path class="st1" d="M66.2,33.6c0.9,0,1.7,0,2.6-0.1c0.4,0,0.7,0,0.7,0.5c0,0.4-0.3,0.5-0.7,0.5c-1.8,0-3.6,0.1-5.4,0.1
		c-0.4,0-0.7-0.1-0.7-0.5c0-0.5,0.3-0.5,0.7-0.5C64.4,33.7,65.3,33.7,66.2,33.6z"/>
	<path class="st1" d="M66.1,36.6c-0.7,0-1.4,0-2,0c-0.3,0-0.6-0.1-0.7-0.5c0-0.4,0.3-0.6,0.6-0.6c1.4,0,2.8-0.1,4.1-0.1
		c0.3,0,0.7,0.1,0.7,0.5c0,0.4-0.3,0.5-0.7,0.5C67.5,36.6,66.8,36.6,66.1,36.6z"/>
	<path class="st1" d="M68,38.5c-1.2,0-2.4,0.1-3.6,0.1c-0.3-0.1-0.4-0.3-0.3-0.6c0.1-0.3,0.3-0.4,0.6-0.4c1,0,2,0,3-0.1
		c0.2,0,0.5,0.1,0.6,0.3C68.3,38.1,68.3,38.3,68,38.5z"/>
	<g>
		<g>
			<path class="st2" d="M60.4,20.6c0-0.3-0.2-0.4-0.5-0.4c-0.3,0-0.5,0.1-0.5,0.4c0,0.1,0,0.3,0,0.6c0.1,0.6,0.2,1.3,0.5,2
				c0.1,0.3,0.4,0.5,0.7,0.3c0.3-0.1,0.4-0.4,0.3-0.7C60.5,22.2,60.4,21.4,60.4,20.6z"/>
			<path class="st3" d="M73.2,16c-1.9-3-5.4-4.5-8.9-3.9c-6.4,1.1-9.4,8.6-5.6,13.9c0.8,1.2,1.8,2.2,2.8,3.2
				c0.7,0.7,1.1,1.6,1.1,2.6c0,0.6,0.3,0.7,0.8,0.7c0.9,0,1.7,0,2.6-0.1c0.9,0,1.7-0.1,2.6,0c0.6,0,0.8-0.2,0.8-0.8
				c-0.1-1,0.3-1.8,1-2.5c1-1.1,2-2.2,2.7-3.4C75.2,22.5,75.2,19.2,73.2,16z M72.1,25.6c-0.7,1-1.5,1.9-2.3,2.9
				c-0.6,0.7-1.1,1.5-1.2,2.5c0,0.4-0.2,0.4-0.5,0.4c-0.7,0-1.3,0-2,0c-0.2,0-0.4,0-0.6,0c-0.5,0-1.1,0.2-1.5,0
				c-0.5-0.2-0.3-0.9-0.5-1.3c-0.3-0.5-0.5-1-0.9-1.4c-0.9-1-1.9-2-2.7-3.1c-3.7-4.8-1-11.6,5-12.6c4.1-0.6,8.2,2.5,8.8,6.6
				C73.9,21.9,73.4,23.8,72.1,25.6z"/>
			<path class="st2" d="M66.3,14.5c0-0.5-0.4-0.5-0.7-0.5c-0.1,0-0.1,0-0.2,0c-2.5,0.3-4.4,1.5-5.5,3.9c-0.2,0.3-0.2,0.7,0.2,0.8
				c0.4,0.2,0.6-0.1,0.7-0.4c0.1-0.3,0.3-0.6,0.5-0.9c1-1.5,2.5-2.3,4.3-2.4C66,15,66.3,15,66.3,14.5z"/>
			<path class="st2" d="M68.7,19.6c-0.3,0.1-0.5,0.2-0.8,0.4c-0.5,0.3-1,0.4-1.5-0.1c-0.3-0.3-0.7-0.4-1,0c-0.5,0.5-1,0.5-1.5,0.2
				c-0.2-0.1-0.4-0.2-0.6-0.3c-0.3-0.1-0.6-0.3-0.8,0c-0.3,0.3-0.1,0.6,0.1,0.8c0.9,1.5,1.5,3.1,1.8,4.9c0.2,1.4,0.3,2.7,0.3,4.1
				c0,0.4,0.2,0.6,0.5,0.6c0.3,0,0.5-0.3,0.5-0.6c-0.1-1.5-0.1-3-0.3-4.5c-0.2-1.3-0.7-2.6-1.3-4c0.7,0.2,1.2,0.1,1.7-0.3
				c0.1-0.1,0.2-0.2,0.3-0.1c0.5,0.5,1.1,0.6,1.8,0.3c-0.7,1.7-1.1,3.3-1.2,5c-0.1,1.2-0.1,2.3-0.1,3.5c0,0.3,0.2,0.6,0.5,0.6
				c0.4,0,0.5-0.3,0.5-0.6c0-0.2,0-0.4,0-0.6c0-1.7,0-3.4,0.4-5.1c0.3-1.3,0.8-2.5,1.4-3.6c0.1-0.2,0.2-0.5,0-0.7
				C69.2,19.5,68.9,19.5,68.7,19.6z"/>
		</g>
	</g>
	<rect x="65.6" y="6.9" class="st2" width="1.4" height="3"/>
	<rect x="58.6" y="8.6" transform="matrix(0.866 -0.5 0.5 0.866 2.8802 31.0118)" class="st2" width="1.4" height="3"/>
	<rect x="54.2" y="13" transform="matrix(0.5 -0.866 0.866 0.5 14.9232 54.8149)" class="st2" width="1.4" height="3"/>
	
		<rect x="52.8" y="19.5" transform="matrix(-1.015685e-02 -0.9999 0.9999 -1.015685e-02 33.0699 74.6384)" class="st2" width="1.4" height="3"/>
	<rect x="54.5" y="25.9" transform="matrix(0.5 0.866 -0.866 0.5 51.3287 -34.1089)" class="st2" width="1.4" height="3"/>
</g>
</svg>
