<?xml version="1.0" encoding="utf-8"?>
<!-- Generator: Adobe Illustrator 21.1.0, SVG Export Plug-In . SVG Version: 6.00 Build 0)  -->
<svg version="1.1" id="Layer_1" xmlns="http://www.w3.org/2000/svg" xmlns:xlink="http://www.w3.org/1999/xlink" x="0px" y="0px"
	 viewBox="0 0 59 24" style="enable-background:new 0 0 59 24;" xml:space="preserve">
<style type="text/css">
	.st0{fill:#CED4DA;}
</style>
<title>Group 2</title>
<desc>Created with Sketch.</desc>
<g id="App-Pages">
	<g id="Artboard" transform="translate(-161.000000, -166.000000)">
		<g id="Group-2" transform="translate(161.000000, 166.000000)">
			<path id="Combined-Shape" class="st0" d="M18,0L18,0h0.2c1.7,0,3.3,1.1,3.8,2.8l3.6,11.2l3.5-11.1C29.6,1.1,31.1,0,32.9,0H33
				c0.2,0,0.4,0,0.7,0.1c1.2,0.4,1.8,1.6,1.4,2.8l-5.8,18.3c-0.4,1.4-1.6,2.4-3,2.7C26.2,24,25.9,24,25.7,24h-0.2c0,0,0,0,0,0
				c0,0,0,0,0,0h-0.1c-0.1,0-0.2,0-0.3,0c-1.5-0.2-2.9-1.2-3.4-2.7L18,9.6l-3.7,11.6c-0.5,1.7-2.1,2.8-3.8,2.8h-0.2
				c-0.1,0-0.2,0-0.3,0c-0.1,0-0.2,0-0.3,0H9.7c-1.7,0-3.3-1.1-3.8-2.8L0.1,2.9c-0.4-1.2,0.3-2.4,1.4-2.8C1.8,0,2,0,2.2,0h0.1
				c1.7,0,3.3,1.1,3.8,2.8L10,15.2l4-12.4C14.5,1.1,16.1,0,17.8,0H18L18,0z M48.4,8.9l-3.9,12.3C44,22.9,42.5,24,40.7,24h-0.1
				c0,0,0,0,0,0c0,0,0,0,0,0h-0.1c-1.7,0-3.3-1.1-3.8-2.8l-2.6-8.2l3.1-9.3l3.4,10.9l3.7-11.7C44.8,1.1,46.3,0,48.1,0h0.1
				c0.1,0,0.2,0,0.2,0c0.1,0,0.2,0,0.2,0h0.1c1.7,0,3.3,1.1,3.8,2.8l5.8,18.3c0.4,1.2-0.3,2.4-1.4,2.8C56.6,24,56.4,24,56.2,24h-0.1
				c-1.7,0-3.3-1.1-3.8-2.8L48.4,8.9z"/>
		</g>
	</g>
</g>
</svg>
