<?xml version="1.0" encoding="utf-8"?>
<!-- Generator: Adobe Illustrator 21.1.0, SVG Export Plug-In . SVG Version: 6.00 Build 0)  -->
<svg version="1.1" id="Layer_1" xmlns="http://www.w3.org/2000/svg" xmlns:xlink="http://www.w3.org/1999/xlink" x="0px" y="0px"
	 viewBox="0 0 145 48" style="enable-background:new 0 0 145 48;" xml:space="preserve">
<style type="text/css">
	.st0{fill:#11A1AB;}
	.st1{fill:#F37721;stroke:#F37721;stroke-width:0.25;stroke-miterlimit:10;}
	.st2{fill:#F37721;}
	.st3{fill:#F37721;stroke:#F37721;stroke-width:0.75;stroke-miterlimit:10;}
	.st4{fill:#122A3F;}
	.st5{fill:#80CA0F;}
</style>
<title>Group 5</title>
<desc>Created with Sketch.</desc>
<g>
	<g>
		<path class="st0" d="M78.8,97.9c-0.7-1.9-2-3.3-3.8-4c2-1.1,3.1-3.1,3.1-6c0-1.9-0.5-3.5-1.6-4.7c-1.3-1.6-3.1-2.4-5.6-2.4l-7.9,0
			l2.6,2.9l5.6,0c1.5,0,2.6,0.5,3.3,1.4c0.3,0.4,0.6,0.9,0.8,1.4c0.2,0.5,0.2,1.1,0.2,1.8c0,0.7-0.1,1.3-0.4,1.9
			c-0.7,1.7-2.1,2.5-4.2,2.5l-4.6,0l-1.2,2.7l6.4,0c1.7,0,3,0.5,4,1.5c0.8,0.9,1.2,2,1.2,3.3c0,1.4-0.4,2.5-1.3,3.2
			c-0.9,0.8-2.1,1.1-3.7,1.1l-5.4,0v0h-5.1l-0.6,2.8l10.8,0.1c1.3,0,2.4-0.2,3.4-0.5c2.9-1.1,4.4-3.2,4.4-6.4
			C79.2,99.5,79.1,98.6,78.8,97.9z"/>
	</g>
</g>
<g>
	<path class="st1" d="M56.8,102.4c0.9,0,1.7,0,2.6-0.1c0.4,0,0.7,0,0.7,0.5c0,0.4-0.3,0.5-0.7,0.5c-1.8,0-3.6,0.1-5.4,0.1
		c-0.4,0-0.7-0.1-0.7-0.5c0-0.5,0.3-0.5,0.7-0.5C55,102.4,55.9,102.4,56.8,102.4z"/>
	<path class="st1" d="M56.8,105.3c-0.7,0-1.4,0-2,0c-0.3,0-0.6-0.1-0.7-0.5c0-0.4,0.3-0.6,0.6-0.6c1.4,0,2.8-0.1,4.1-0.1
		c0.3,0,0.7,0.1,0.7,0.5c0,0.4-0.3,0.5-0.7,0.5C58.2,105.3,57.5,105.3,56.8,105.3z"/>
	<path class="st1" d="M58.7,107.2c-1.2,0-2.4,0.1-3.6,0.1c-0.3-0.1-0.4-0.3-0.3-0.6c0.1-0.3,0.3-0.4,0.6-0.4c1,0,2,0,3-0.1
		c0.2,0,0.5,0.1,0.6,0.3C59,106.8,58.9,107,58.7,107.2z"/>
	<g>
		<g>
			<path class="st2" d="M51,89.4c0-0.3-0.2-0.4-0.5-0.4c-0.3,0-0.5,0.1-0.5,0.4c0,0.1,0,0.3,0,0.6c0.1,0.6,0.2,1.3,0.5,2
				c0.1,0.3,0.4,0.5,0.7,0.3c0.3-0.1,0.4-0.4,0.3-0.7C51.2,90.9,51.1,90.1,51,89.4z"/>
			<path class="st3" d="M63.9,84.8c-1.9-3-5.4-4.5-8.9-3.9c-6.4,1.1-9.4,8.6-5.6,13.9c0.8,1.2,1.8,2.2,2.8,3.2
				c0.7,0.7,1.1,1.6,1.1,2.6c0,0.6,0.3,0.7,0.8,0.7c0.9,0,1.7,0,2.6-0.1c0.9,0,1.7-0.1,2.6,0c0.6,0,0.8-0.2,0.8-0.8
				c-0.1-1,0.3-1.8,1-2.5c1-1.1,2-2.2,2.7-3.4C65.8,91.2,65.9,88,63.9,84.8z M62.7,94.3c-0.7,1-1.5,1.9-2.3,2.9
				c-0.6,0.7-1.1,1.5-1.2,2.5c0,0.4-0.2,0.4-0.5,0.4c-0.7,0-1.3,0-2,0c-0.2,0-0.4,0-0.6,0c-0.5,0-1.1,0.2-1.5,0
				c-0.5-0.2-0.3-0.9-0.5-1.3c-0.3-0.5-0.5-1-0.9-1.4c-0.9-1-1.9-2-2.7-3.1c-3.7-4.8-1-11.6,5-12.6c4.1-0.6,8.2,2.5,8.8,6.6
				C64.5,90.6,64,92.6,62.7,94.3z"/>
			<path class="st2" d="M56.9,83.2c0-0.5-0.4-0.5-0.7-0.5c-0.1,0-0.1,0-0.2,0c-2.5,0.3-4.4,1.5-5.5,3.9c-0.2,0.3-0.2,0.7,0.2,0.8
				c0.4,0.2,0.6-0.1,0.7-0.4c0.1-0.3,0.3-0.6,0.5-0.9c1-1.5,2.5-2.3,4.3-2.4C56.7,83.8,57,83.7,56.9,83.2z"/>
			<path class="st2" d="M59.3,88.3c-0.3,0.1-0.5,0.2-0.8,0.4c-0.5,0.3-1,0.4-1.5-0.1c-0.3-0.3-0.7-0.4-1,0c-0.5,0.5-1,0.5-1.5,0.2
				c-0.2-0.1-0.4-0.2-0.6-0.3c-0.3-0.1-0.6-0.3-0.8,0c-0.3,0.3-0.1,0.6,0.1,0.8c0.9,1.5,1.5,3.1,1.8,4.9c0.2,1.4,0.3,2.7,0.3,4.1
				c0,0.4,0.2,0.6,0.5,0.6c0.3,0,0.5-0.3,0.5-0.6c-0.1-1.5-0.1-3-0.3-4.5c-0.2-1.3-0.7-2.6-1.3-4c0.7,0.2,1.2,0.1,1.7-0.3
				c0.1-0.1,0.2-0.2,0.3-0.1c0.5,0.5,1.1,0.6,1.8,0.3c-0.7,1.7-1.1,3.3-1.2,5c-0.1,1.2-0.1,2.3-0.1,3.5c0,0.3,0.2,0.6,0.5,0.6
				c0.4,0,0.5-0.3,0.5-0.6c0-0.2,0-0.4,0-0.6c0-1.7,0-3.4,0.4-5.1c0.3-1.3,0.8-2.5,1.4-3.6c0.1-0.2,0.2-0.5,0-0.7
				C59.8,88.2,59.6,88.2,59.3,88.3z"/>
		</g>
	</g>
	<rect x="56.2" y="75.6" class="st2" width="1.4" height="3"/>
	<rect x="49.2" y="77.4" transform="matrix(0.866 -0.5 0.5 0.866 -32.7373 35.5383)" class="st2" width="1.4" height="3"/>
	<rect x="44.9" y="81.7" transform="matrix(0.5 -0.866 0.866 0.5 -49.2768 81.0701)" class="st2" width="1.4" height="3"/>
	
		<rect x="43.4" y="88.2" transform="matrix(-1.015685e-02 -0.9999 0.9999 -1.015685e-02 -45.1103 134.701)" class="st2" width="1.4" height="3"/>
	<rect x="45.1" y="94.6" transform="matrix(0.5 0.866 -0.866 0.5 106.1663 8.3623)" class="st2" width="1.4" height="3"/>
</g>
<rect x="47.7" y="5" class="st4" width="12" height="12"/>
<rect x="61.7" y="5" class="st4" width="12" height="12"/>
<rect x="75.7" y="5" class="st4" width="12" height="12"/>
<rect x="47.7" y="19" class="st4" width="12" height="12"/>
<rect x="61.7" y="19" class="st4" width="12" height="12"/>
<rect x="89.7" y="19" class="st5" width="12" height="12"/>
<rect x="47.7" y="33" class="st4" width="12" height="12"/>
<rect x="61.7" y="33" class="st4" width="12" height="12"/>
<rect x="75.7" y="33" class="st4" width="12" height="12"/>
</svg>
