<svg xmlns="http://www.w3.org/2000/svg" viewBox="0 0 262.11 222.69"><defs><style>.cls-1{fill:none;stroke:#23a1aa;stroke-miterlimit:10;stroke-width:8px;}</style></defs><title>MessageIcon</title><g id="Layer_2" data-name="Layer 2"><g id="Layer_1-2" data-name="Layer 1"><path class="cls-1" d="M254.83,215.23c-11.74-5-22.94-9.37-33.71-14.59-6.69-3.24-12.43-3.32-19.68-1.06-31.93,9.95-62.72,7-91.2-11.38-13.39-8.64-23.34-20.43-27.43-36.15C77.32,131,84,113.14,98.88,98.13c13.43-13.52,30.15-21,48.7-24.24,24.93-4.4,48.88-1.38,71.33,10.82,11.18,6.07,20.57,14.22,27.41,25.07,12.69,20.13,11.24,44.06-4.08,63-2.32,2.87-2.55,4.94-1.14,8.26C245.8,192.1,250.08,203.31,254.83,215.23Z"/><path class="cls-1" d="M215.85,68.66c-8.34-2.36-15.78-5.09-23.46-6.52-34-6.36-65.76-1-93.87,20-15.41,11.57-25.77,26.71-29.14,46.07a62.51,62.51,0,0,0,1.68,28.09c.26.9.55,1.8,1,3.32-3.64-1.35-6.69-2.66-9.85-3.57a7.64,7.64,0,0,0-4.66,0c-15.78,6.64-31.5,13.44-47.24,20.19-1.06.45-2.14.85-3.69,1.47.49-1.41.79-2.41,1.17-3.37,5.44-13.62,10.85-27.25,16.39-40.82a4.09,4.09,0,0,0-.78-4.93C11.58,114.73,5.22,98.76,6.57,80.29c1.29-17.71,9.25-32.4,21.74-44.7,16.19-15.92,36-25,58-29.07,28.08-5.21,55.37-2.51,81.36,9.75,18.09,8.53,33,20.8,42.39,38.82C212.31,59.32,213.85,63.89,215.85,68.66Z"/></g></g></svg>