<svg id="Layer_1" data-name="Layer 1" xmlns="http://www.w3.org/2000/svg" width="0.5079in" height="0.4428in" viewBox="0 0 36.5692 31.8796"><defs><style>.cls-1{fill:#11a1ab;}.cls-2,.cls-3,.cls-4{fill:#f37721;}.cls-2,.cls-4{stroke:#f37721;stroke-miterlimit:10;}.cls-2{stroke-width:0.25px;}.cls-4{stroke-width:0.75px;}</style></defs><title>mini-logo</title><path class="cls-1" d="M88.1838,29.1508a6.3787,6.3787,0,0,0-3.8421-4.0154q3.0692-1.6,3.0845-6.0022a7.0379,7.0379,0,0,0-1.5674-4.7321,6.86,6.86,0,0,0-5.6033-2.3683l-7.8906-.02L74.9686,14.92l5.5524-.019a4.0363,4.0363,0,0,1,3.3344,1.429,3.8724,3.8724,0,0,1,.7525,1.3966,6.2294,6.2294,0,0,1,.2349,1.8183,4.8385,4.8385,0,0,1-.3853,1.9162,4.1345,4.1345,0,0,1-4.243,2.5241l-4.58-.0215-1.2091,2.7456,6.3651.0242a5.2016,5.2016,0,0,1,3.9539,1.4724,4.5939,4.5939,0,0,1,1.2281,3.3169,4.1523,4.1523,0,0,1-1.2848,3.2445,5.257,5.257,0,0,1-3.6531,1.1337l-5.4-.0254v.0417H70.556l-.6168,2.7985,10.81.0506a9.3207,9.3207,0,0,0,3.41-.5493,6.2706,6.2706,0,0,0,4.3944-6.4395A8.289,8.289,0,0,0,88.1838,29.1508Z" transform="translate(-51.9844 -6.8872)"/><path class="cls-2" d="M66.1947,33.6416c.8661-.0169,1.7322-.03,2.5981-.0525.354-.0091.6933.0066.7071.472.0131.4428-.2844.5312-.6591.5372q-2.6911.0435-5.3819.1052c-.376.0086-.6746-.0717-.677-.5138-.0024-.4656.3377-.4917.6909-.4966C64.38,33.68,65.2874,33.6593,66.1947,33.6416Z" transform="translate(-51.9844 -6.8872)"/><path class="cls-2" d="M66.1446,36.6236c-.6781.0132-1.3563.0244-2.0344.0406-.3445.0082-.6225-.0789-.6536-.4791-.035-.45.2723-.5615.6315-.57q2.065-.0512,4.13-.0814c.35-.0054.6807.0568.6849.5127.0041.4435-.297.532-.6628.5375C67.5419,36.594,66.8433,36.61,66.1446,36.6236Z" transform="translate(-51.9844 -6.8872)"/><path class="cls-2" d="M68.04,38.4513l-3.6213.1048a.4528.4528,0,0,1-.32-.6262.5427.5427,0,0,1,.5757-.37q1.5059-.0321,3.0118-.0578a.5374.5374,0,0,1,.5512.3153A.463.463,0,0,1,68.04,38.4513Z" transform="translate(-51.9844 -6.8872)"/><path class="cls-3" d="M60.35,20.6246a.4221.4221,0,0,0-.4659-.3946.466.466,0,0,0-.518.4193,4.3839,4.3839,0,0,0,.0075.61,6.65,6.65,0,0,0,.5182,1.953.5041.5041,0,0,0,.6852.3365A.47.47,0,0,0,60.86,22.89,7.5828,7.5828,0,0,1,60.35,20.6246Z" transform="translate(-51.9844 -6.8872)"/><path class="cls-4" d="M73.2429,16.0306a8.73,8.73,0,0,0-8.8707-3.8859,8.83,8.83,0,0,0-5.5873,13.9027,29.843,29.843,0,0,0,2.797,3.2212,3.6381,3.6381,0,0,1,1.1277,2.592c.0038.5774.2923.7439.8244.7193.8657-.04,1.7332-.04,2.6-.057s1.7337-.0548,2.6-.0435c.5871.0077.8372-.2483.806-.8179a3.4544,3.4544,0,0,1,.9572-2.5289,26.8777,26.8777,0,0,0,2.7239-3.4416A8.5593,8.5593,0,0,0,73.2429,16.0306Zm-1.162,9.56c-.73,1.0029-1.5331,1.9434-2.3408,2.8814a4.0518,4.0518,0,0,0-1.1544,2.53c-.0114.3535-.1827.4415-.5109.4367-.66-.01-1.321.0191-1.9815.032q-.2787.0055-.5573.0109a4.4907,4.4907,0,0,1-1.5347-.0081c-.5158-.19-.2833-.89-.5022-1.3307a5.8122,5.8122,0,0,0-.9288-1.3758c-.9235-1-1.8662-1.9826-2.7015-3.0621a7.7783,7.7783,0,1,1,13.7492-5.988A7.9436,7.9436,0,0,1,72.0809,25.59Z" transform="translate(-51.9844 -6.8872)"/><path class="cls-3" d="M66.2954,14.5214c-.0212-.462-.3589-.4862-.7116-.4659-.0617.0036-.1233.0085-.185.0128a6.47,6.47,0,0,0-5.4917,3.9043c-.1534.3337-.2044.66.1847.8421.3976.1862.5918-.0767.7473-.4107a6.1536,6.1536,0,0,1,.5084-.9124,5.4944,5.4944,0,0,1,4.2972-2.4274C66.015,15.0357,66.3159,14.968,66.2954,14.5214Z" transform="translate(-51.9844 -6.8872)"/><path class="cls-3" d="M68.6785,19.5815a8.3734,8.3734,0,0,0-.7744.3749,1.0278,1.0278,0,0,1-1.4824-.1265.6051.6051,0,0,0-1.0085.0042,1.0566,1.0566,0,0,1-1.5272.1818,3.88,3.88,0,0,0-.5593-.2575c-.2876-.1172-.5864-.2514-.85.04-.2694.2978-.0878.56.0694.8386a14.2882,14.2882,0,0,1,1.7863,4.8876,29.8038,29.8038,0,0,1,.2873,4.13c.0043.3642.161.6215.5282.6276a.4964.4964,0,0,0,.5081-.5776,36.4951,36.4951,0,0,0-.3213-4.5,15.7039,15.7039,0,0,0-1.2825-3.9593,1.5646,1.5646,0,0,0,1.6837-.3436c.0844-.0824.1848-.1811.3174-.0589a1.6149,1.6149,0,0,0,1.7761.33,13.9561,13.9561,0,0,0-1.2255,5.0281c-.0523,1.1525-.0546,2.3075-.0639,3.4615a.5134.5134,0,0,0,.5125.5833c.3642-.0032.5384-.2555.5255-.624-.0065-.1856-.0068-.3714-.0113-.5571a20.1512,20.1512,0,0,1,.4-5.0992,14.7816,14.7816,0,0,1,1.4119-3.5994.53.53,0,0,0-.0268-.6821A.5228.5228,0,0,0,68.6785,19.5815Z" transform="translate(-51.9844 -6.8872)"/><rect class="cls-3" x="13.6016" width="1.421" height="2.9709"/><rect class="cls-3" x="58.5984" y="8.646" width="1.421" height="2.9709" transform="translate(-49.1042 24.1246) rotate(-30)"/><rect class="cls-3" x="54.2221" y="12.9981" width="1.421" height="2.9709" transform="translate(-37.0612 47.9277) rotate(-60)"/><rect class="cls-3" x="52.7665" y="19.4659" width="1.421" height="2.9709" transform="translate(-18.9145 67.7512) rotate(-90.582)"/><rect class="cls-3" x="54.493" y="25.912" width="1.421" height="2.9709" transform="translate(-0.6557 -40.996) rotate(60)"/></svg>