<?xml version="1.0" encoding="utf-8"?>
<!-- Generator: Adobe Illustrator 23.0.2, SVG Export Plug-In . SVG Version: 6.00 Build 0)  -->
<svg version="1.1" id="Layer_1" xmlns="http://www.w3.org/2000/svg" xmlns:xlink="http://www.w3.org/1999/xlink" x="0px" y="0px"
	 viewBox="0 0 197.9 235.3" style="enable-background:new 0 0 197.9 235.3;" xml:space="preserve">
<style type="text/css">
	.st0{fill:#22A1AA;}
</style>
<g>
	<g>
		<path class="st0" d="M146.1,234.3c-7-1.7-14-3.4-21.1-5.1c-13.2-3.1-26.3-6.2-39.5-9.2c-1.9-0.4-4,0.1-6,0.3c-2.9,0.3-5.7,1-8.6,1
			c-21.4,0.1-42.8,0.1-64.3,0c-4.6,0-5.8-1.2-5.8-5.8c0-36.4,0-72.7,0-109.1c0-17.4,0-34.7,0-52.1c0-3.1,1.3-4.7,4.5-4.8
			c4.4-0.2,8.9-0.1,13.3,0.1c2.6,0.1,4,1.6,4,3.7c0,2.2-1.5,3.8-4.1,3.9c-2.4,0.1-4.7,0-7.1,0c-0.8,0-1.6,0-2.6,0
			c0,52.2,0,104.2,0,156.4c0.9,0,1.6,0,2.4,0c19.9,0,39.8,0.1,59.7-0.1c3.9,0,8.1-1,11.8-2.4c6.4-2.5,9.4-7.7,9.5-14.4
			c0.1-7.9,0-15.8,0-23.7c0-4.2,1.4-5.6,5.7-5.2c7.9,0.8,15.7,1.1,23.5-0.5c4.8-1,9.3-2.5,12.8-6.1c0.7-0.7,1.2-1.9,1.2-2.9
			c0-33.9,0-67.8,0-101.7c0-1.7,0-3.5,0-5.5c-0.8,0-1.5,0-2.2,0c-14.7,0-29.4,0-44.1,0.1c-0.5,0-1.1,0-1.6-0.1
			c-2.4-0.2-4-1.8-3.9-3.9c0-2,1.6-3.6,3.8-3.7c2.2-0.2,4.4-0.1,6.7-0.1c14.5,0,29.1,0,43.6,0.1c4.4,0,5.6,1.2,5.6,5.5
			c0,36.3,0,72.6,0.1,108.9c0,3.9-1.4,6.9-4.1,9.6c-15,14.9-30,29.9-45,44.8c-0.4,0.4-0.7,0.8-1.4,1.5c16.9,3.9,33.6,7.8,50.5,11.8
			c14.9-61.6,29.7-123,44.6-184.7c-41-9.6-81.9-19.1-123.1-28.7c-0.4,1.3-0.7,2.6-1.1,3.9c-0.8,2.6-2.6,3.9-4.8,3.4
			c-2.3-0.5-3.5-2.6-2.8-5.3c0.5-2.3,1.1-4.5,1.7-6.8c0.8-3.1,2.6-4.1,5.8-3.4c25.1,5.8,50.3,11.7,75.4,17.5
			c17.7,4.1,35.4,8.3,53.1,12.4c4,0.9,4.9,2.4,4,6.3c-6.4,26.5-12.8,53-19.1,79.5c-8.4,34.8-16.8,69.6-25.2,104.5
			c-0.4,1.7-0.8,3.4-1.2,5c-0.5,2.5-1.5,4.4-4.2,5C146.4,234.3,146.3,234.3,146.1,234.3z M119.7,176c-6.6,0-13,0-19.4,0
			c0,6.5,0,12.8,0,18C106.5,188.3,113.2,182.1,119.7,176z"/>
		<path class="st0" d="M26.4,60.5c1.1-3.4,2.1-6.8,3.5-10.1c0.7-1.6,0.6-2.5-0.8-3.5c-2.2-1.6-4.3-3.4-6.3-5.2c-1.1-1-2-1.2-3.5-0.6
			c-4.4,1.6-8.7,1.5-12.7-1.1c-4.3-2.9-6.1-8.7-4-14.4c3.7-10.4,11-17.2,22-19.7c9.6-2.2,16.7,5,14.5,14.5c-0.4,1.6,0,2.5,1.2,3.4
			c2.3,1.8,4.6,3.7,6.8,5.7c1.1,1,1.9,1,3.2,0.3c4.9-2.6,10.1-4.2,15.8-3.5c9.3,1.2,15.8,8.7,14.6,18c-0.5,3.9-1.9,7.8-3.4,11.6
			c-0.7,1.7-0.6,2.8,0.5,4.1c5,6.2,9.9,12.5,14.8,18.7c0.5,0.7,1.1,1.3,1.5,2c1.1,1.6,1.4,3.4,0,5c-1.5,1.6-3.3,1.8-5.2,0.7
			c-2.2-1.2-4.4-2.5-6.5-3.7c-5.7-3.3-11.5-6.6-17.2-10c-1.2-0.7-2.1-0.6-3.3,0.1c-5.7,3.5-11.7,5.9-18.5,5.6
			c-9.8-0.5-16.6-7.8-16.3-17.5C26.8,60.6,26.6,60.6,26.4,60.5z M28.6,36.4c3.2,2.6,6.4,5.2,9.5,7.9c2.5,2.2,5,3.8,8.6,3.3
			c2-0.3,3.3,1.1,3.7,3c0.4,1.8-0.3,3.4-2.1,4.1c-1.4,0.5-3,0.8-4.4,0.6c-2.3-0.3-4.5-1.1-6.9-1.8c-0.5,1.1-1,2.4-1.4,3.6
			c-2.7,8.9,2.9,14.9,12.1,13.1c8.4-1.7,14.6-6.5,19.7-13.1c3.4-4.4,5.8-9.2,5.6-14.9c-0.1-4.1-2.3-7.1-6.1-8.1
			c-4.4-1.1-8.4,0-12.2,1.9c0.7,1.9,1.5,3.6,1.9,5.3c0.6,2.6-0.6,4.6-2.8,5.1c-2.2,0.5-3.8-0.9-4.9-3.4c-0.8-1.9-2-3.7-3.4-5.1
			c-2-2-4.4-3.8-6.6-5.6c-1.3-1-2.5-2.1-3.6-3C32.8,31.9,30.8,34.1,28.6,36.4z M9.7,29.5c-0.1,3.6,1.5,5,4.8,4.6
			c7.4-0.7,16.1-8.9,17.1-16.2c0.5-3.3-1.2-5.1-4.5-4.8c-5,0.4-8.8,3.2-12.1,6.6C12.1,22.6,10.1,26,9.7,29.5z M71.4,64.6
			c-0.6,0.6-1,1.1-1.7,1.7c1.6,0.9,3,1.7,4.5,2.6c0.1-0.1,0.2-0.3,0.3-0.4C73.6,67.2,72.6,66,71.4,64.6z"/>
		<path class="st0" d="M71.4,64.6c1.1,1.4,2.1,2.7,3.1,3.9c-0.1,0.1-0.2,0.3-0.3,0.4c-1.4-0.8-2.9-1.6-4.5-2.6
			C70.4,65.7,70.8,65.2,71.4,64.6z"/>
	</g>
	<g>
		<path class="st0" d="M62,110.8c0-3.2,0-6.6,0-10.2c1.6,0,3.1,0,4.7,0c0,3.4,0,6.8,0,10.3c3.3,0.5,6.4,0.9,9.5,1.4
			c1.9,0.3,3.8,0.9,5.6,1.5c0.4,0.1,1,0.9,1,1.3c0.1,2.1,0,4.3,0,6.7c-5.1-2.4-10.2-4-15.9-4.2c0,6.4,0,12.8,0,19.3
			c1.9,0.4,4,0.8,5.9,1.4c2,0.6,4,1.3,5.9,2.2c5.2,2.5,8.1,6.6,8.4,12.3c0.3,6.1-1.7,11.1-7.1,14.6c-3.3,2.1-7.1,3.1-11,3.6
			c-0.7,0.1-1.4,0.2-2.3,0.3c0,4.5,0,9,0,13.5c-1.6,0-3.1,0-4.8,0c0-4.4,0-8.9,0-12.8c-5.5-1.2-10.7-2.2-15.8-3.6
			c-3.9-1.1-3.9-1.3-3.9-5.2c0-1.4,0-2.7,0-4.4c6.1,3.7,12.4,6.1,19.6,6.1c0-7,0-13.9,0-20.7c-2.9-0.8-5.8-1.4-8.6-2.4
			c-5-1.7-9-4.5-10.4-9.9c-2.2-8.1,1.5-15.7,9.5-18.8C55.4,112.1,58.7,111.6,62,110.8z M66.9,145.1c0,6.6,0,13.2,0,19.7
			c7.6-0.9,11.6-4.5,11.5-10.1C78.4,149.4,74.1,145.8,66.9,145.1z M62,136.1c0-6.2,0-12.4,0-18.5c-6.6,0.3-11,3.8-11.2,8.9
			C50.6,132,54.3,135.2,62,136.1z"/>
	</g>
</g>
</svg>
