<svg xmlns="http://www.w3.org/2000/svg" viewBox="0 0 204.82 245.58"><defs><style>.cls-1{fill:#23a1aa;}</style></defs><title>PostIcon</title><g id="Layer_2" data-name="Layer 2"><g id="Layer_1-2" data-name="Layer 1"><path class="cls-1" d="M152,245.58c-7.36-1.81-14.71-3.65-22.07-5.42-13.77-3.3-27.52-6.63-41.33-9.76-2-.44-4.18.1-6.27.32-3,.32-6,1.1-9,1.11-22.42.1-44.84,0-67.26,0-4.81,0-6-1.28-6-6.17q0-58.14,0-116.28,0-27.75,0-55.5c0-3.3,1.39-5,4.68-5.15,4.64-.17,9.29-.1,13.92.08,2.68.1,4.19,1.73,4.22,4s-1.59,4-4.33,4.19c-2.47.14-5,0-7.44.05H8.39V223.71h2.48c20.82,0,41.64.14,62.46-.11A35.64,35.64,0,0,0,85.65,221c6.69-2.65,9.82-8.2,9.91-15.33.11-8.41,0-16.82,0-25.23,0-4.48,1.52-5.94,6-5.49,8.24.81,16.46,1.19,24.63-.49,5-1,9.76-2.68,13.35-6.54a5,5,0,0,0,1.28-3.13q.06-54.18,0-108.37V50.52h-2.33l-46.13.07c-.56,0-1.12,0-1.68-.08-2.49-.21-4.14-1.86-4.11-4.11a4.08,4.08,0,0,1,4-4c2.32-.16,4.65-.12,7-.12l45.65.06c4.59,0,5.88,1.31,5.88,5.81q0,58,.13,116.05a13.68,13.68,0,0,1-4.33,10.22q-23.56,23.85-47.07,47.75c-.38.39-.74.81-1.43,1.56l52.83,12.56c15.57-65.64,31.07-131,46.66-196.79L67,9c-.38,1.42-.73,2.77-1.11,4.11-.8,2.82-2.67,4.19-5,3.68s-3.61-2.79-3-5.69c.55-2.42,1.15-4.82,1.78-7.22C60.59.54,62.45-.55,65.82.25q39.45,9.33,78.9,18.66,27.78,6.59,55.55,13.2c4.18,1,5.18,2.58,4.2,6.7q-10,42.38-20,84.73-13.19,55.67-26.38,111.33c-.42,1.79-.87,3.58-1.21,5.38-.48,2.62-1.58,4.68-4.4,5.33Zm-27.63-62.06H104v19.19Z"/><path class="cls-1" d="M26.68,60.4c1.18-3.6,2.18-7.27,3.62-10.77.71-1.72.66-2.63-.84-3.75a85.87,85.87,0,0,1-6.61-5.58,3,3,0,0,0-3.62-.67c-4.59,1.76-9.14,1.63-13.3-1.19C1.4,35.37-.41,29.2,1.72,23.13c3.88-11.06,11.47-18.36,23-21,10-2.34,17.53,5.38,15.15,15.44a3,3,0,0,0,1.26,3.62c2.44,1.94,4.83,4,7.13,6.07a2.44,2.44,0,0,0,3.33.33c5.14-2.8,10.55-4.47,16.54-3.68C77.9,25.16,84.6,33.18,83.4,43a52.34,52.34,0,0,1-3.54,12.34c-.71,1.85-.64,2.94.53,4.41,5.21,6.6,10.31,13.27,15.45,19.92.54.7,1.12,1.37,1.61,2.1,1.16,1.75,1.51,3.59,0,5.3a4,4,0,0,1-5.43.78c-2.3-1.29-4.56-2.65-6.83-4-6-3.53-12-7-18-10.62a2.82,2.82,0,0,0-3.44.09c-5.93,3.69-12.21,6.33-19.41,5.94C34.08,78.76,27,71,27.34,60.62Zm2.25-25.66c3.31,2.8,6.74,5.54,10,8.47,2.6,2.34,5.24,4,9,3.48,2.06-.29,3.48,1.19,3.9,3.19a3.55,3.55,0,0,1-2.21,4.32,9.94,9.94,0,0,1-4.65.67A60,60,0,0,1,37.71,53c-.48,1.21-1.1,2.51-1.5,3.87-2.81,9.44,3,15.93,12.66,14,8.75-1.78,15.31-7,20.58-13.94,3.54-4.68,6-9.82,5.84-15.89-.14-4.37-2.43-7.53-6.39-8.58-4.57-1.21-8.78,0-12.74,2.06a51.39,51.39,0,0,1,2,5.64c.63,2.8-.64,4.92-3,5.47s-4-1-5.09-3.59a17.94,17.94,0,0,0-3.59-5.44,89.36,89.36,0,0,0-6.9-6C38.3,29.46,37,28.36,35.8,27.36ZM9.21,27.4c-.13,3.84,1.52,5.28,5,5C22,31.59,31,22.86,32.05,15.06c.47-3.51-1.22-5.42-4.75-5.14C22,10.34,18.1,13.36,14.63,17A18.59,18.59,0,0,0,9.21,27.4Zm64.6,37.33-1.74,1.86,4.68,2.72.31-.41Z"/><path class="cls-1" d="M55.1,118c-8.64,0-17.29,0-25.93,0-3,0-4.71-1.46-4.81-3.88s1.55-4.06,4.5-4.23c2.63-.16,5.28,0,7.92,0H80.72c3.29,0,4.91.87,5.44,2.87.84,3.15-1.36,5.4-5.13,5.39-8.64,0-17.29,0-25.93,0Z"/><path class="cls-1" d="M55.35,181.09c-8.56,0-17.13,0-25.7,0-3.75,0-5.89-2-5-4.92.35-1.21,1.72-2.26,2.84-3.07a4.9,4.9,0,0,1,2.58-.31q25.46-.08,50.91-.1a7.21,7.21,0,0,1,3.23.68,3.78,3.78,0,0,1,2,4.44c-.47,2.27-2.15,3.13-4.19,3.23-3.12.16-6.24.12-9.36.13H55.35Z"/><path class="cls-1" d="M55.46,149.45H28.79c-2,0-3.73-.76-4.1-2.63a6.12,6.12,0,0,1,1-4.31c.58-.83,2.25-1.23,3.43-1.23,17.46-.06,34.92,0,52.38,0,3.06,0,4.85,1.59,4.82,4.16s-1.86,4-5,4Q68.44,149.47,55.46,149.45Z"/><path class="cls-1" d="M55.18,196.79c-4.16,0-8.32.07-12.48,0-3.11-.07-4.83-1.68-4.71-4.24a3.65,3.65,0,0,1,3-3.75,7,7,0,0,1,1.41-.27c8.56,0,17.12-.1,25.68,0a4.31,4.31,0,0,1,4.44,4.18c0,2.26-1.7,4-4.44,4.08-4.31.12-8.63,0-12.95,0Z"/><path class="cls-1" d="M55.36,94.1c4,0,8,0,12,0,3.35,0,5.19,1.42,5.26,4s-1.95,4.17-5.1,4.18q-12.48.06-25,0c-2.84,0-4.61-1.69-4.59-4.12s1.62-3.94,4.43-4C46.72,94,51,94.11,55.36,94.1Z"/><path class="cls-1" d="M55.22,133.67c-4.17,0-8.33,0-12.49,0-3.06,0-4.77-1.42-4.82-3.84s1.8-4.34,4.72-4.36q12.73-.08,25.45.07c2.67,0,4.48,1.79,4.5,4.05s-1.75,4-4.65,4.07C63.69,133.73,59.45,133.67,55.22,133.67Z"/><path class="cls-1" d="M55.12,165.23c-4,0-8,0-12,0-3.32,0-5.19-1.49-5.17-4s1.74-4.14,5-4.15q12.34-.06,24.71,0c2.91,0,4.91,1.75,4.89,4.17s-1.91,4-4.76,4C63.59,165.27,59.35,165.23,55.12,165.23Z"/><path class="cls-1" d="M73.81,64.73l3.25,4.17-.31.41-4.68-2.72Z"/></g></g></svg>