<svg id="Layer_1" data-name="Layer 1" xmlns="http://www.w3.org/2000/svg" viewBox="0 0 281.73 246.37"><defs><style>.cls-1{fill:#20a1aa;}</style></defs><title>School Icon</title><g id="Layer_1-2" data-name="Layer 1-2"><path class="cls-1" d="M245,197.45a5.34,5.34,0,0,1-5.42,3.27q-100.47-.06-200.94,0c-4.52,0-5.73-1.25-5.73-5.82v-.21c0-6,.49-6.61,6.62-7.22v-31.8c0-5.36,2.49-7.81,7.9-7.82h18.6V122.39c0-5.22,2.53-7.72,7.78-7.73H105.7V94.6c-1.09,0-2.1.05-3.12,0a3.27,3.27,0,0,1-3.19-2.49,8.55,8.55,0,0,1,3.27-9.84c10.38-7.78,20.74-15.6,31.17-23.34a4.26,4.26,0,0,0,1.91-4c-.07-11.73,0-23.47,0-35.2,0-1.66,0-3.55,1.8-4,1.58-.42,3.84-.62,5.08.21,4.84,3.28,9.72,3.07,14.78,1,4.17-1.67,8.34-2.42,12.71-1,.92.3,1.81.65,2.72,1a3.68,3.68,0,0,1,2.56,4c-.09,5.6,0,11.19,0,16.78,0,2.56-.7,3-3,2.08a17.63,17.63,0,0,0-14.08-.11c-3.43,1.4-6.95,2.47-10.67,1.43A55.34,55.34,0,0,1,142.21,39c0,3.61.37,7.36-.09,11-.69,5.47,1.26,8.87,5.86,12,9.46,6.46,18.42,13.62,27.59,20.5,3,2.2,4.34,6.7,2.71,9.93-.51,1-2,1.64-3.19,2.11a8.9,8.9,0,0,1-2.94.06v20.08h31.68c5.53,0,8,2.48,8,8v25.1c.81,0,1.51.1,2.26.1h16.56c5.1,0,7.67,2.55,7.68,7.62v32.14c3-.24,5.5.25,6.72,3.24ZM156,98a17,17,0,1,0-17,17.08H139A17.14,17.14,0,0,0,156,98Zm-23.61,63v26.45h13.17V161ZM92.48,147.77V128H79.3v19.8Zm13.3-.05H119V128H105.78Zm39.78-19.78H132.38v19.8h13.18ZM172,147.77V127.92H158.88v19.85Zm13.41-19.9v19.87h13.16V127.87ZM52.8,161v19.89H65.91V161Zm26.49,0v19.8h13.2V161Zm39.73.07H105.85v19.75H119Zm53,19.82V161.05H158.92v19.84Zm26.53-19.81H185.42v19.81h13.14Zm26.53,19.81v-19.8H211.92v19.8Z"/><path class="cls-1" d="M142.09,98a13,13,0,0,1-1.84,3.25c-1.83,1.76-3.92,3.26-5.88,4.89a1.75,1.75,0,0,1-2.7-.22c-.89-.87-1.18-1.63-.26-2.65s1.65-2.26,2.64-3.18c2-1.86,2.5-4.14,2.5-6.73,0-2.2.29-4.41.37-6.61.06-1.41.76-2,2.08-1.94s1.88.54,1.94,1.84c.21,3.72.48,7.43.76,11.15Z"/></g></svg>