<svg id="Layer_1" data-name="Layer 1" xmlns="http://www.w3.org/2000/svg" viewBox="0 0 281.73 246.37"><defs><style>.cls-1{fill:#20a1aa;}</style></defs><title>Student Icon</title><path class="cls-1" d="M136.14,208.53c-2.36-.86-4.77-1.51-6.64-3.45-.64-.67-2.07-.6-3.16-.79q-26.06-4.59-52.13-9.15c-2.94-.51-3.88-1.53-4.14-4.51-.08-1-.19-1.94-.29-3,3-.82,6-1.56,9-2.47a11.42,11.42,0,0,0,8.37-9.6,19.6,19.6,0,0,0,.12-5.19c-.45-4.54,1.32-9.35-1.78-13.6-.8-1.09-.66-2.82-1.35-4-2.34-4.12-6.12-5.88-10.73-5.94-2.14,0-4.28.18-6.6.28-.19-2.36-.39-4.61-.55-6.87q-.39-5.26-.73-10.53c-.21-3.41,1.64-5,5-4.29q30.26,6.56,60.49,13.11a4.19,4.19,0,0,1,3.58,3.12,2,2,0,0,0,1.23,1.2,17.37,17.37,0,0,0,4.07.29,2.85,2.85,0,0,0,3-2.18,4.53,4.53,0,0,1,3-2.32c14.41-3.23,28.86-6.31,43.3-9.44l17.18-3.71c3.64-.79,5.38.74,5.1,4.4-.37,4.75-.65,9.5-1,14.24-.06,1-.19,1.91-.3,3-2.1-.1-4-.22-6-.27-6.47-.16-10.69,3-12.4,9.28-.15.55-.53,1-.73,1.57a12.33,12.33,0,0,0-1.24,3.65c-.09,3.41.13,6.83.21,10.24a27.6,27.6,0,0,0,.1,4.82,11.05,11.05,0,0,0,8,8.74c3,.93,6,1.66,9.09,2.5-.12,1.45-.15,2.87-.37,4.27-.31,2-1.7,2.94-3.62,3.27L183,198.65l-34.24,6c-.45.08-1,.12-1.28.41-1.87,2.17-4.47,2.78-7.05,3.49Zm-1.22-56.19v42.87c0,2.69,1.09,4,3.39,4,2.06,0,3-1.17,3-3.88q0-20.53,0-41.06v-1.9Z"/><path class="cls-1" d="M141.45,13.14,141,8.62l7.48,5.18c1.63-2.06,3.1-3.9,4.69-5.89l3.53,9.71,10-3.88.34.57c-.94,1.66-1.86,3.33-2.82,5s-.77,2.58.63,4c7.86,8.15,11,17.8,8.45,29a46.24,46.24,0,0,1-2.07,5.6c3,5.73-.36,15.17-5.15,15.15-2.62,4.47-4.91,8.94-7.75,13a37.79,37.79,0,0,1-7,7.52c-8.17,6.73-18.08,6.56-26.26-.18-6-5-10-11.44-13.13-18.46l-.95-2.08c-2,.71-3-.55-4-2-1.94-3-3.18-6.17-2.61-9.77a22.12,22.12,0,0,1,1.45-4,71.1,71.1,0,0,1-2-8.22c-1.81-13.27,4-23,14.79-30a36.63,36.63,0,0,1,20.21-5.72l2.35,0A1.45,1.45,0,0,0,141.45,13.14ZM112,54.84c1.08,3.91,1.9,7.6,3.12,11.14,2.78,8.06,6.32,15.75,12.67,21.72,6.79,6.37,14.31,6.47,21,0,9-8.72,13.16-20,15.59-31.95a2.14,2.14,0,0,0-.53-1.7c-4.54-4.06-6.86-9.41-8.84-15-.39-1.1-.82-2.19-1.3-3.46-6.28,9.25-16.34,16.81-22.25,17.06l3.94-12.59-.64-.34C129.08,47.45,122.94,54.38,112,54.84Z"/><path class="cls-1" d="M156.9,99.75c7.76,2.67,15.14,5.18,22.48,7.78a19.39,19.39,0,0,1,3.8,2c5.09,3.18,5.6,4.82,6.93,11.23q-8.18,1.8-16.36,3.58c-9.8,2.11-19.6,4.16-29.38,6.37a49.75,49.75,0,0,0-6.21,2.3c-4.19-2.94-9.61-3.09-14.69-4.26-11.61-2.65-23.27-5.06-34.91-7.57-.56-.12-1.11-.31-1.69-.48.66-4.8,2.44-8.72,6.86-11.21,6.49-3.63,13.54-5.68,20.61-7.7,1.81-.52,3.63-1,5.68-1.55-.6,6.15-1.18,12.14-1.8,18.48.89-.3,1.54-.5,2.16-.74,5.55-2.07,11.08-4.2,16.65-6.19a4.56,4.56,0,0,1,2.92,0c5.69,2,11.34,4.22,17,6.34.48.18,1,.31,1.81.58C158.15,112.48,157.56,106.51,156.9,99.75Z"/><path class="cls-1" d="M71.05,154.73c.46,0,1.43,0,2.41,0,2.67.08,3.64,1,4,3.7a4.46,4.46,0,0,0,1,2.46c1.16,1.14.94,2.18.52,3.54a9.87,9.87,0,0,0,0,3.11c0,.11.19.22.19.33a77.36,77.36,0,0,1-.49,7.78c-.1.7-1.29,1.57-2.13,1.78a84.57,84.57,0,0,1-11,2.43c-10,1.18-13.41-7.36-12.58-13.59.89-6.62,4.88-10.32,11.52-10.92C66.5,155.18,68.51,155,71.05,154.73Z"/><path class="cls-1" d="M206.25,154.73c2.68.29,5.09.43,7.47.82,7.07,1.13,11.38,7.19,10.28,14.31-1.13,7.38-6.19,11.14-13.62,9.93a97.5,97.5,0,0,1-9.5-2.2c-2.56-.67-3.26-2-3-4.65a18.43,18.43,0,0,0-.19-3.22c0-.57-.25-1.32,0-1.7,1-1.44.63-2.74.14-4.23a5,5,0,0,1,.47-2.62,20,20,0,0,0,1.13-2.8c.4-2.53,1.33-3.51,3.91-3.63C204.44,154.69,205.48,154.73,206.25,154.73Z"/></svg>