<svg id="Layer_1" data-name="Layer 1" xmlns="http://www.w3.org/2000/svg" viewBox="0 0 281.73 246.37"><defs><style>.cls-1{fill:#20a1aa;}</style></defs><title>Teacher Icon</title><path class="cls-1" d="M80.63,209.48c-2.79-2.1-5.23-3.23-6.56-5.13a18.36,18.36,0,0,1-3.49-8.19c-1.4-14-2.46-28-3.42-42-.26-3.77-1.62-6.27-5.13-7.86-5.56-2.5-8.29-7-8.28-13.09,0-13.45-.12-26.9.06-40.35.14-10,6.93-17.42,16.58-18.9,2.87-.44,4.4.11,5.28,3.21a142.51,142.51,0,0,0,7.18,19.91c.62-3.82,1.23-7.64,1.92-11.87h8.31l1.78,11.52.78.3c1.23-3.69,2.47-7.38,3.68-11.07,1.28-3.9,2.54-7.81,3.91-12,6.13.07,11.43,1.28,15.16,6.7,4,5.79,8.53,11.2,12.25,17.14,2.63,4.19,5.92,6.21,10.71,6.28a30.88,30.88,0,0,1,3.78.43,106.75,106.75,0,0,0-1.2,11.42c0,1.11,1.61,2.59,2.84,3.31,4.06,2.39,7.28.33,13.13-8.08,2.76,6.84-1.38,13.23-8.66,12.66-8.06-.63-16.11-1.73-24.06-3.15-2.11-.38-4.18-2.4-5.73-4.14-2.49-2.8-4.53-6-7.51-10-.69,9.51-1.3,17.79-1.91,26.07-1.47,20.26-3.1,40.51-4.34,60.79-.43,7.08-3,12.28-9.54,16.07"/><path class="cls-1" d="M236.69,124.43c-3.68,10.38-11.11,14-21.93,13.9-31-.38-62.06-.13-93.09-.13h-5V128.12H216.76c7.59,0,9.79-2.21,9.79-9.82q0-42.87,0-85.75c0-7.64-2.2-9.86-9.77-9.86H57.66c-7.68,0-9.91,2.18-9.91,9.71,0,28.58-.13,57.17.09,85.75,0,6.15,1.34,12.3,2.08,18.63-7.61-1.61-12.22-8.06-12.24-16.79,0-18.8,0-37.61,0-56.41,0-10.85,0-21.7,0-32.56.06-11.18,7.2-18.42,18.35-18.43q80.94-.06,161.88-.05c9.75,0,15.51,5.08,18.79,13.74Z"/><path class="cls-1" d="M88.91,67.58a17.43,17.43,0,1,1,17.5-17.52A17.43,17.43,0,0,1,88.91,67.58Z"/><path class="cls-1" d="M182.73,59.11l-18.39,35.6c-2.94,5.69-5.79,11.41-8.83,17a12.46,12.46,0,0,1-3.36,4.19c-2.81,2-5.7.45-5.56-3a9.37,9.37,0,0,1,1.55-4.65q16.4-24.51,33-48.9a5.07,5.07,0,0,1,1-.88Z"/><path class="cls-1" d="M81.06,73.89H98.12c-2.77,3.43-4.39,7.5-6.92,8.18C84.87,83.76,84.22,82.77,81.06,73.89Z"/></svg>