<svg xmlns="http://www.w3.org/2000/svg" width="238.5979" height="238.5979" viewBox="0 0 238.5979 238.5979"><defs><style>.cls-1{fill:#fff;}</style></defs><title>Asset 21</title><g id="Layer_2" data-name="Layer 2"><g id="Layer_1-2" data-name="Layer 1"><g id="NXzRxM"><path class="cls-1" d="M119.2153,0C185.0172-.034,238.6328,53.5827,238.5978,119.385c-.0349,65.7752-53.72,119.3067-119.5555,119.2128C53.57,238.5043.0914,185.023,0,119.549-.0917,53.7,53.4249.0339,119.2153,0ZM54.004,161.9035c41.0525,25.4673,104.6177,9.1959,116.8038-51.8284,2.25-11.2682,3.2214-22.1094,13.26-29.4435.2789-.2037.2689-.8028.5548-1.7531l-11.8434,2.937L182.0971,69.09a7.6307,7.6307,0,0,0-5.1429.7857c-6.2932,2.85-11.6294,4.1137-18.44-.93-10.4962-7.7728-25.2457-4.6255-34.0163,5.3285-5.98,6.7868-7.6822,14.884-6.77,24.2308C94.78,97.061,76.7176,87.1268,61.56,70.3419c-6.9815,14.2112-3.0877,25.5473,8.1425,36.6863L57.8,103.9722c.83,13.0784,7.726,21.1588,20.7411,26.71l-10.5283.8268c4.1583,10.9158,10.2506,15.72,24.2326,18.9926C81.0672,158.9672,68.7964,161.9441,54.004,161.9035Z"/></g></g></g></svg>