<svg xmlns="http://www.w3.org/2000/svg" viewBox="0 0 219.1 224.09"><defs><style>.cls-1{fill:#23a1aa;}</style></defs><title>ViewIcon</title><g id="Layer_2" data-name="Layer 2"><g id="Layer_1-2" data-name="Layer 1"><path class="cls-1" d="M163.17,0c13.14,5.22,16.3,10,16.3,24.5v90.68c-4.94-2-9.6-3.62-13.89-5.91-1.14-.6-1.58-3.35-1.59-5.11-.09-26.66-.06-53.32-.07-80,0-7.78-.41-8.18-8.19-8.18h-132c-7.69,0-8,.35-8,8.27q0,83.24,0,166.47c0,7.54.66,8.18,8.32,8.18,47.32,0,94.65-.16,142,.17,3.05,0,6.08,3.66,9,5.5-2,6.31-5.56,9.28-11.15,9.74-2.16.17-4.32.4-6.48.4q-67.25,0-134.47,0c-7.11,0-14-1.19-18.16-7.4C2.32,203.82.25,199.21.23,195.07Q-.21,107.34.07,19.61C.09,8.92,6.74,3.21,16.17,0Z"/><path class="cls-1" d="M219.1,211.25l-12.61,12.84-38.86-39.34c-8.54,3.91-16.22,5.82-24.58,4.47-17.22-2.76-30.31-18.38-29.71-35.91S127.87,120.6,145.06,119c18.06-1.66,34.46,10.14,38.22,27.34,1.62,7.4,1.26,14.61-1.88,21.46-1.4,3.05-1.08,4.88,1.37,7.27C195,187.05,207.08,199.24,219.1,211.25Zm-70.16-36.07a20.88,20.88,0,0,0,21.14-20.75,21.2,21.2,0,0,0-42.39-.33C127.55,166,136.86,175.2,148.94,175.18Z"/><path class="cls-1" d="M30.6,49.92h99.45v15.4H30.6Z"/><path class="cls-1" d="M130.38,95.8c0,3.9,0,7.54,0,11.18,0,1.3-.16,2.59-.26,4.17H30.47V95.8Z"/></g></g></svg>