<svg xmlns="http://www.w3.org/2000/svg" viewBox="0 0 188.46 38.66"><defs><style>.cls-1,.cls-2,.cls-3{fill:#fff;}.cls-2,.cls-3{stroke:#fff;stroke-miterlimit:10;}.cls-2{stroke-width:0.25px;}</style></defs><title>Asset 2</title><g id="Layer_2" data-name="Layer 2"><g id="Layer_1-2" data-name="Layer 1"><path class="cls-1" d="M58.35,14.84v3.38H58a6.35,6.35,0,0,0-5.4,2.91,11.33,11.33,0,0,0-2,6.67l0,9.93H47.47l.08-22.56h3.06l0,5.55a8,8,0,0,1,4.27-5.17,6.85,6.85,0,0,1,3.27-.71Z"/><path class="cls-1" d="M64.87,7l0,4.42H61.54l0-4.42Zm-3.22,8.2h3.06L64.64,37.8H61.57Z"/><path class="cls-1" d="M73,37.84H69.95l.11-31.59h3.06Z"/><path class="cls-1" d="M81.39,37.87H78.33l.11-31.59H81.5Z"/><path class="cls-1" d="M90,7.13l0,4.42H86.67l0-4.42Zm-3.22,8.2h3.06l-.08,22.56H86.7Z"/><path class="cls-1" d="M111,34.39a8,8,0,0,1-7.33,3.94,8.88,8.88,0,0,1-7.18-3.42,12.73,12.73,0,0,1-2.67-8.27,12.72,12.72,0,0,1,2.73-8.25A9.08,9.08,0,0,1,104,15a7.92,7.92,0,0,1,7.1,4V15.44h3.06L114.08,38H111Zm-6.91.87a6.21,6.21,0,0,0,5.24-2.5,9.63,9.63,0,0,0,1.86-6,9.64,9.64,0,0,0-1.82-6.06,6.22,6.22,0,0,0-5.22-2.55,6.51,6.51,0,0,0-5.32,2.5,9.34,9.34,0,0,0-1.94,6,9.35,9.35,0,0,0,1.9,6.06A6.52,6.52,0,0,0,104.12,35.27Z"/><path class="cls-1" d="M121.6,38.05l.07-19.59-4.17,0v-3l4.17,0,0-8.08h3.06l0,8.08,4.7,0v3l-4.7,0-.07,19.59Z"/><path class="cls-1" d="M147.47,38.17V34.65a10.71,10.71,0,0,1-2.71,2.74,6.13,6.13,0,0,1-3.64,1.11,8.88,8.88,0,0,1-3.51-.65,7.12,7.12,0,0,1-2.57-1.91,10.31,10.31,0,0,1-2.51-7.28l0-13.13h3.06l0,13a7.35,7.35,0,0,0,1.58,5,5.2,5.2,0,0,0,4.12,1.87,5.8,5.8,0,0,0,4.38-1.88,7,7,0,0,0,1.82-5l0-13h3.06l-.08,22.56Z"/><path class="cls-1" d="M166.72,15.33v3.38h-.37a6.35,6.35,0,0,0-5.41,2.91,11.33,11.33,0,0,0-2,6.67l0,9.93h-3.06l.08-22.56H159l0,5.55A8,8,0,0,1,163.24,16a6.84,6.84,0,0,1,3.27-.71Z"/><path class="cls-1" d="M178.53,35.6a6.11,6.11,0,0,0,5.94-3.76h3.35a10.85,10.85,0,0,1-3.39,4.95,9.06,9.06,0,0,1-6,1.87A9.45,9.45,0,0,1,171,35.25,12.26,12.26,0,0,1,168.19,27a12.49,12.49,0,0,1,2.73-8.25,9.86,9.86,0,0,1,14.87.07,12.51,12.51,0,0,1,2.67,8.27v1.35l-17.12-.08a8.55,8.55,0,0,0,2.23,5.15A6.56,6.56,0,0,0,178.53,35.6Zm-.18-17.15a6.4,6.4,0,0,0-4.75,1.92,8.33,8.33,0,0,0-2.22,4.82l13.89.06a8.35,8.35,0,0,0-2.19-4.84A6.42,6.42,0,0,0,178.35,18.45Z"/><path class="cls-1" d="M42.89,26.42a7.53,7.53,0,0,0-4.54-4.74Q42,19.79,42,14.59A8.31,8.31,0,0,0,40.14,9a8.1,8.1,0,0,0-6.62-2.8l-9.32,0,3.08,3.43,6.56,0a4.77,4.77,0,0,1,3.94,1.69,4.57,4.57,0,0,1,.89,1.65,7.36,7.36,0,0,1,.28,2.15,5.72,5.72,0,0,1-.46,2.26q-1.27,3-5,3l-5.41,0-1.43,3.24,7.52,0a6.14,6.14,0,0,1,4.67,1.74,5.43,5.43,0,0,1,1.45,3.92,4.9,4.9,0,0,1-1.52,3.83,6.21,6.21,0,0,1-4.32,1.34l-6.38,0v0h-6l-.73,3.31,12.77.06a11,11,0,0,0,4-.65q5.17-1.88,5.19-7.61A9.79,9.79,0,0,0,42.89,26.42Z"/><path class="cls-2" d="M16.91,31.73,20,31.67c.42,0,.82,0,.84.56s-.34.63-.78.63L13.68,33c-.44,0-.8-.08-.8-.61s.4-.58.82-.59Z"/><path class="cls-2" d="M16.85,35.25l-2.4,0c-.41,0-.74-.09-.77-.57s.32-.66.75-.67L19.3,34c.41,0,.8.07.81.61s-.35.63-.78.63Z"/><path class="cls-2" d="M19.09,37.41l-4.28.12a.53.53,0,0,1-.38-.74.64.64,0,0,1,.68-.44l3.56-.07a.63.63,0,0,1,.65.37A.55.55,0,0,1,19.09,37.41Z"/><path class="cls-2" d="M10,16.35a.5.5,0,0,0-.55-.47.55.55,0,0,0-.61.5,5.18,5.18,0,0,0,0,.72,7.86,7.86,0,0,0,.61,2.31.6.6,0,0,0,.81.4.55.55,0,0,0,.33-.78A9,9,0,0,1,10,16.35Z"/><path class="cls-3" d="M25.24,10.93A10.31,10.31,0,0,0,14.76,6.34a10.43,10.43,0,0,0-6.6,16.42,35.25,35.25,0,0,0,3.3,3.8,4.3,4.3,0,0,1,1.33,3.06c0,.68.35.88,1,.85,1,0,2,0,3.07-.07s2-.06,3.07-.05c.69,0,1-.29,1-1a4.08,4.08,0,0,1,1.13-3,31.75,31.75,0,0,0,3.22-4.07A10.11,10.11,0,0,0,25.24,10.93ZM23.86,22.22c-.86,1.18-1.81,2.3-2.76,3.4a4.79,4.79,0,0,0-1.36,3c0,.42-.22.52-.6.52-.78,0-1.56,0-2.34,0h-.66a5.3,5.3,0,0,1-1.81,0c-.61-.22-.33-1.05-.59-1.57A6.87,6.87,0,0,0,12.63,26c-1.09-1.18-2.2-2.34-3.19-3.62a9.19,9.19,0,1,1,16.24-7.07A9.38,9.38,0,0,1,23.86,22.22Z"/><path class="cls-2" d="M17,9.14c0-.55-.42-.57-.84-.55l-.22,0a7.64,7.64,0,0,0-6.49,4.61c-.18.39-.24.78.22,1s.7-.09.88-.49a7.27,7.27,0,0,1,.6-1.08,6.49,6.49,0,0,1,5.08-2.87C16.7,9.75,17.05,9.67,17,9.14Z"/><path class="cls-2" d="M19.85,15.12a9.89,9.89,0,0,0-.91.44,1.21,1.21,0,0,1-1.75-.15.71.71,0,0,0-1.19,0,1.25,1.25,0,0,1-1.8.21,4.58,4.58,0,0,0-.66-.3c-.34-.14-.69-.3-1,0s-.1.66.08,1a16.88,16.88,0,0,1,2.11,5.77A35.2,35.2,0,0,1,15.05,27c0,.43.19.73.62.74a.59.59,0,0,0,.6-.68,43.11,43.11,0,0,0-.38-5.32,18.55,18.55,0,0,0-1.51-4.68,1.85,1.85,0,0,0,2-.41c.1-.1.22-.21.37-.07a1.91,1.91,0,0,0,2.1.39,16.48,16.48,0,0,0-1.45,5.94c-.06,1.36-.06,2.73-.08,4.09a.61.61,0,0,0,.61.69c.43,0,.64-.3.62-.74,0-.22,0-.44,0-.66a23.8,23.8,0,0,1,.47-6A17.46,17.46,0,0,1,20.67,16a.63.63,0,0,0,0-.81A.62.62,0,0,0,19.85,15.12Z"/><rect class="cls-2" x="16.19" y="0.13" width="1.68" height="3.51"/><rect class="cls-2" x="7.94" y="2.2" width="1.68" height="3.51" transform="translate(-0.8 4.92) rotate(-30)"/><rect class="cls-2" x="2.77" y="7.34" width="1.68" height="3.51" transform="translate(-6.07 7.67) rotate(-60)"/><rect class="cls-2" x="1.05" y="14.98" width="1.68" height="3.51" transform="translate(-14.83 18.8) rotate(-90.58)"/><rect class="cls-2" x="3.09" y="22.6" width="1.68" height="3.51" transform="translate(23.05 8.77) rotate(60)"/></g></g></svg>