<svg id="Layer_1" data-name="Layer 1" xmlns="http://www.w3.org/2000/svg" viewBox="0 0 281.73 246.37"><defs><style>.cls-1,.cls-2{fill:#fff;}.cls-2{stroke:#fff;stroke-miterlimit:10;stroke-width:0.25px;}</style></defs><title>White Nav Logo</title><g id="Layer_1-2" data-name="Layer 1-2"><path class="cls-1" d="M88.91,94V98.9H88.4a9.14,9.14,0,0,0-7.76,4.18,16.32,16.32,0,0,0-2.87,9.59v14.27h-4.5l.12-32.42h4.39v8a11.51,11.51,0,0,1,6.14-7.43,9.93,9.93,0,0,1,4.7-1Z"/><path class="cls-1" d="M98.28,82.77v6.36H93.49V82.77ZM93.65,94.56h4.4L98,127H93.53Z"/><path class="cls-1" d="M110,127.1h-4.38l.16-45.4h4.39Z"/><path class="cls-1" d="M122,127.14h-4.4l.16-45.4h4.4Z"/><path class="cls-1" d="M134.39,83v6.35h-4.78V83Zm-4.62,11.79h4.39l-.11,32.42h-4.4Z"/><path class="cls-1" d="M164.58,122.14A11.5,11.5,0,0,1,154,127.8a12.78,12.78,0,0,1-10.32-4.91A18.29,18.29,0,0,1,139.89,111a18.25,18.25,0,0,1,3.92-11.86,13,13,0,0,1,10.71-4.87,11.4,11.4,0,0,1,10.2,5.75V94.9h4.4L169,127.33h-4.42Zm-9.93,1.25a8.94,8.94,0,0,0,7.53-3.59,15.53,15.53,0,0,0,0-17.34,9,9,0,0,0-7.5-3.66,9.35,9.35,0,0,0-7.64,3.59,15,15,0,0,0-.06,17.33,9.33,9.33,0,0,0,7.66,3.68Z"/><path class="cls-1" d="M179.81,127.4l.1-28.16h-6V94.93h6V83.32h4.4V94.93h6.75v4.31h-6.75l-.1,28.16Z"/><path class="cls-1" d="M217,127.57v-5.06a15.5,15.5,0,0,1-3.89,3.94,8.9,8.9,0,0,1-5.23,1.6,12.83,12.83,0,0,1-5.05-.94,10.19,10.19,0,0,1-3.69-2.74,14.84,14.84,0,0,1-3.61-10.47V95h4.4v18.69a10.53,10.53,0,0,0,2.27,7.18,7.43,7.43,0,0,0,5.92,2.69,8.33,8.33,0,0,0,6.29-2.7A10,10,0,0,0,217,113.7V95h4.4l-.12,32.42Z"/><path class="cls-1" d="M244.66,94.75V99.6h-.53a9.15,9.15,0,0,0-7.78,4.19,16.19,16.19,0,0,0-2.87,9.58v14.27h-4.4l.11-32.42h4.37v8a11.53,11.53,0,0,1,6.1-7.49,9.78,9.78,0,0,1,4.7-1Z"/><path class="cls-1" d="M261.63,123.88a8.78,8.78,0,0,0,8.54-5.41H275a15.56,15.56,0,0,1-4.87,7.12,13.06,13.06,0,0,1-8.62,2.69,13.61,13.61,0,0,1-10.68-4.9,17.67,17.67,0,0,1-4-11.86,18,18,0,0,1,3.92-11.86,14.17,14.17,0,0,1,20-1.28,15,15,0,0,1,1.38,1.38,18,18,0,0,1,3.83,11.89v1.94l-24.6-.12a12.23,12.23,0,0,0,3.2,7.4A9.45,9.45,0,0,0,261.63,123.88Zm-.26-24.65a9.19,9.19,0,0,0-6.82,2.76,12,12,0,0,0-3.19,6.93l20,.08a12,12,0,0,0-3.15-7A9.26,9.26,0,0,0,261.37,99.23Z"/><path class="cls-1" d="M66.69,110.68a10.87,10.87,0,0,0-6.53-6.81q5.25-2.72,5.25-10.19a12,12,0,0,0-2.67-8,11.68,11.68,0,0,0-9.52-4H39.83l4.42,4.93h9.43A6.84,6.84,0,0,1,59.34,89a6.59,6.59,0,0,1,1.28,2.37,10.45,10.45,0,0,1,.4,3.09,8,8,0,0,1-.66,3.25c-1.21,2.88-3.61,4.31-7.18,4.31H45.4l-2,4.66H54.16a8.86,8.86,0,0,1,6.71,2.5A7.78,7.78,0,0,1,63,114.8a7,7,0,0,1-2.18,5.5,8.94,8.94,0,0,1-6.21,1.93H36.76l-1,4.75,18.35.09a15.64,15.64,0,0,0,5.75-.94q7.42-2.7,7.46-10.93A14.12,14.12,0,0,0,66.69,110.68Z"/><path class="cls-2" d="M29.35,118.32l4.44-.09c.6,0,1.18,0,1.21.81s-.49.9-1.12.9l-9.17.2c-.64,0-1.15-.11-1.15-.87s.57-.84,1.18-.85Z"/><path class="cls-2" d="M29.26,123.38H25.81c-.59,0-1.06-.13-1.1-.82s.46-1,1.07-1h7c.59,0,1.15.1,1.17.88s-.51.9-1.12.9Z"/><path class="cls-2" d="M32.48,126.48l-6.15.17a.76.76,0,0,1-.6-.89.84.84,0,0,1,.05-.17.92.92,0,0,1,1-.63l5.12-.1a.89.89,0,0,1,.93.53.78.78,0,0,1-.3,1.07Z"/><path class="cls-1" d="M19.42,96.21a.73.73,0,0,0-.76-.68h0a.79.79,0,0,0-.88.69v0a8.85,8.85,0,0,0,0,1,11.33,11.33,0,0,0,.88,3.32.86.86,0,0,0,1.05.61l.11,0a.82.82,0,0,0,.48-1.12A12.72,12.72,0,0,1,19.42,96.21Z"/><path class="cls-2" d="M41.32,88.42a14.8,14.8,0,0,0-15.06-6.59,15,15,0,0,0-9.49,23.59,50.46,50.46,0,0,0,4.75,5.47,6.18,6.18,0,0,1,1.91,4.39c0,1,.5,1.27,1.43,1.23,1.44,0,2.88,0,4.42-.1s2.87-.09,4.41-.08c1,0,1.44-.41,1.44-1.43a5.87,5.87,0,0,1,1.62-4.32,45.08,45.08,0,0,0,4.63-5.85A14.53,14.53,0,0,0,41.32,88.42Zm-2,16.23c-1.24,1.69-2.6,3.3-4,4.89a6.85,6.85,0,0,0-1.95,4.31c0,.6-.32.74-.87.74H28.24a7.57,7.57,0,0,1-2.6,0c-.88-.31-.47-1.5-.85-2.25a9.7,9.7,0,0,0-1.59-2.26c-1.57-1.69-3.16-3.36-4.59-5.2A13.21,13.21,0,1,1,42,94.72,13.44,13.44,0,0,1,39.34,104.65Z"/><path class="cls-1" d="M29.48,85.85c0-.79-.61-.82-1.21-.79H28a11,11,0,0,0-9.32,6.62c-.26.57-.35,1.13.31,1.44s1-.13,1.27-.7a10.19,10.19,0,0,1,.86-1.55,9.3,9.3,0,0,1,7.3-4.13C29.05,86.73,29.55,86.61,29.48,85.85Z"/><path class="cls-1" d="M33.57,94.44a13,13,0,0,0-1.3.64,1.75,1.75,0,0,1-2.46-.15l-.06-.07a1,1,0,0,0-1.41-.3,1.07,1.07,0,0,0-.3.3,1.79,1.79,0,0,1-2.51.36l-.08-.06a6.63,6.63,0,0,0-.94-.43c-.49-.2-1-.43-1.44,0s-.15,1,.11,1.44a24.36,24.36,0,0,1,3,8.29,52.1,52.1,0,0,1,.46,7.06c0,.62.27,1,.89,1.06a.84.84,0,0,0,.87-.82.92.92,0,0,0,0-.16,63,63,0,0,0-.55-7.64,26.6,26.6,0,0,0-2.17-6.73,2.66,2.66,0,0,0,2.88-.59c.14-.14.31-.3.53-.1a2.73,2.73,0,0,0,3,.56,23.81,23.81,0,0,0-2.09,8.54c-.08,2-.08,3.92-.11,5.88a.86.86,0,0,0,.75,1h.12c.62,0,.92-.43.9-1.06v-1a34.27,34.27,0,0,1,.67-8.63,25.17,25.17,0,0,1,2.37-6.16.87.87,0,0,0-1.18-1.27Z"/><rect class="cls-2" x="28.31" y="72.9" width="2.41" height="5.04"/><rect class="cls-2" x="16.46" y="75.88" width="2.41" height="5.04" transform="translate(-36.83 19.34) rotate(-30)"/><rect class="cls-2" x="9.03" y="83.26" width="2.41" height="5.04" transform="translate(-69.17 51.75) rotate(-60)"/><rect class="cls-2" x="5.23" y="95.57" width="5.04" height="2.41" transform="translate(-0.98 0.08) rotate(-0.58)"/><rect class="cls-2" x="8.16" y="106.5" width="5.04" height="2.41" transform="translate(-52.42 19.77) rotate(-30)"/></g></svg>