<svg xmlns="http://www.w3.org/2000/svg" width="109.8599" height="109.9134" viewBox="0 0 109.8599 109.9134"><defs><style>.cls-1{fill:#fff;}.cls-2{fill:#13a3ac;}</style></defs><title>Asset 12</title><g id="Layer_2" data-name="Layer 2"><g id="Layer_1-2" data-name="Layer 1"><path class="cls-1" d="M54.93,0a54.9567,54.9567,0,1,0,54.93,54.9567A54.9433,54.9433,0,0,0,54.93,0Zm.572,107.525a51.996,51.996,0,1,1,51.9707-51.996A51.9834,51.9834,0,0,1,55.5019,107.525Z"/><g id="HqgZIW"><path class="cls-2" d="M95.5285,33.01c.2189-10.0557-8.2836-18.2245-17.3947-18.0919-15.8941.2314-31.7938.0327-47.691.0764-9.9141.0273-17.4,7.8041-17.4292,18.0158q-.0346,11.869-.0005,23.7382c.022,8.9558,5.8354,16.2481,14.3569,17.8855,1.2324.2368,1.5556.7031,1.548,1.8866-.03,4.7081.011,9.4167.02,14.1251.0057,3.1175.0011,6.235.0011,9.8077.662-.5057.9279-.6767,1.1579-.8891Q42.69,87.9367,55.2581,76.2785a4.3856,4.3856,0,0,1,3.2-1.2876c7.0871-.0877,14.1825.3717,21.2611-.2312,9.0824-.7734,15.726-8.1993,15.7664-17.62C95.52,49.0967,95.3535,41.05,95.5285,33.01ZM90.1038,57.3465A11.9292,11.9292,0,0,1,78.3558,69.23c-7.22.0316-14.44.0406-21.6588-.02a4.6652,4.6652,0,0,0-3.5317,1.4043c-5.8875,5.5494-11.8563,11.0068-17.8014,16.491-.2224.2051-.4261.5-.8624.3629-.4023-.5427-.19-1.2162-.1946-1.8337-.0325-4.1847-.0312-8.37-.0422-12.5546-.01-3.8288-.011-3.853-3.6408-3.83a12.16,12.16,0,0,1-4.1121-.5864,11.8859,11.8859,0,0,1-7.8861-11.1221c-.0517-8.4348-.0672-16.8707.0048-25.3052a11.6322,11.6322,0,0,1,11.4446-11.68q24.2237-.0607,48.4477,0A11.971,11.971,0,0,1,90.1038,32.4337Q90.22,44.8891,90.1038,57.3465Z"/><path class="cls-2" d="M33.2794,50.7779A5.1742,5.1742,0,0,1,28.2125,45.58a5.0793,5.0793,0,0,1,10.1584-.0373A5.3473,5.3473,0,0,1,33.2794,50.7779Z"/><path class="cls-2" d="M54.1885,40.5027a5.028,5.028,0,0,1,5.1361,5.0948,5.1988,5.1988,0,0,1-4.9,5.1795,5.3431,5.3431,0,0,1-5.267-5.0552A5.0588,5.0588,0,0,1,54.1885,40.5027Z"/><path class="cls-2" d="M75.4187,40.5045a5.1413,5.1413,0,0,1-.2563,10.2735,4.914,4.914,0,0,1-4.8544-5.3033A4.7223,4.7223,0,0,1,75.4187,40.5045Z"/></g></g></g></svg>